<?xml version="1.0" ?>
<!-- Uploaded to: SVG Repo, www.svgrepo.com, Generator: SVG Repo Mixer Tools -->
<svg fill="#000000" width="800px" height="800px" viewBox="0 0 64 64" id="Layer_1_1_" version="1.1" xml:space="preserve" xmlns="http://www.w3.org/2000/svg" xmlns:xlink="http://www.w3.org/1999/xlink">
<g>
<path d="M32,61c-3.859,0-7-3.14-7-7h-2c0,4.962,4.037,9,9,9s9-4.038,9-9h-2C39,57.86,35.859,61,32,61z"/>
<path d="M32,59c2.757,0,5-2.243,5-5h-2c0,1.654-1.346,3-3,3s-3-1.346-3-3h-2C27,56.757,29.243,59,32,59z"/>
<path d="M60,6h-8c-1.654,0-3,1.346-3,3v7.219l-6.279,1.57c-0.557-2.822-1.934-5.417-4.014-7.496L38.414,10H37V8h-2v2h-2V6.816   C34.161,6.402,35,5.302,35,4c0-1.654-1.346-3-3-3s-3,1.346-3,3c0,1.302,0.839,2.402,2,2.816V10h-2V8h-2v2h-1.414l-0.293,0.293   c-2.08,2.079-3.457,4.674-4.014,7.496L15,16.219V9c0-1.654-1.346-3-3-3H4C2.346,6,1,7.346,1,9v26c0,1.654,1.346,3,3,3h8   c1.654,0,3-1.346,3-3v-7.219l6.045-1.511c0.203,3.261,1.467,6.31,3.631,8.757L20,40.638V46h9.132l0.736,5.151   C30.019,52.206,30.936,53,32,53s1.981-0.794,2.132-1.848L34.868,46H44v-5.362l-4.676-5.611c2.164-2.447,3.428-5.497,3.631-8.757   L49,27.781V35c0,1.654,1.346,3,3,3h8c1.654,0,3-1.346,3-3V9C63,7.346,61.654,6,60,6z M32,3c0.552,0,1,0.449,1,1s-0.448,1-1,1   s-1-0.449-1-1S31.448,3,32,3z M61,9v3h-4V8h3C60.552,8,61,8.449,61,9z M51,20h4v4h-4V20z M51,18v-4h4v4H51z M51,26h4v4h-4V26z    M57,26h4v4h-4V26z M57,24v-4h4v4H57z M57,18v-4h4v4H57z M52,8h3v4h-4V9C51,8.449,51.448,8,52,8z M26.423,12h11.154   c0.582,0.62,1.09,1.292,1.53,2H24.893C25.332,13.292,25.841,12.62,26.423,12z M13,18H9v-4h4V18z M13,24H9v-4h4V24z M7,18H3v-4h4V18   z M7,20v4H3v-4H7z M7,26v4H3v-4H7z M9,26h4v4H9V26z M13,9v3H9V8h3C12.552,8,13,8.449,13,9z M4,8h3v4H3V9C3,8.449,3.448,8,4,8z    M3,35v-3h4v4H4C3.448,36,3,35.551,3,35z M12,36H9v-4h4v3C13,35.551,12.552,36,12,36z M15,18.281l6.042,1.511   C21.025,20.079,21,20.366,21,20.657v3.562l-6,1.5V18.281z M26.469,36h11.063l3.334,4h-17.73L26.469,36z M37,34H27V23   c0-1.654,1.346-3,3-3h4c1.654,0,3,1.346,3,3V34z M32.151,50.869c-0.021,0.149-0.281,0.15-0.303,0L31.153,46h1.693L32.151,50.869z    M22,44v-2h20v2H22z M41,25.343c0,2.46-0.7,4.811-2,6.83V23c0-2.757-2.243-5-5-5h-4c-2.757,0-5,2.243-5,5v9.174   c-1.3-2.02-2-4.37-2-6.83v-4.687c0-1.62,0.303-3.194,0.881-4.657h16.239C40.697,17.463,41,19.036,41,20.657V25.343z M43,24.219   v-3.562c0-0.291-0.025-0.577-0.042-0.865L49,18.281v7.438L43,24.219z M51,35v-3h4v4h-3C51.448,36,51,35.551,51,35z M60,36h-3v-4h4   v3C61,35.551,60.552,36,60,36z"/>
<path d="M32,22c-1.654,0-3,1.346-3,3s1.346,3,3,3s3-1.346,3-3S33.654,22,32,22z M32,26c-0.552,0-1-0.449-1-1s0.448-1,1-1   s1,0.449,1,1S32.552,26,32,26z"/>
<rect height="2" width="2" x="29" y="30"/>
<rect height="2" width="2" x="33" y="30"/>
</g>
</svg>