<svg width="114" height="26" viewBox="0 0 114 26" fill="none" xmlns="http://www.w3.org/2000/svg">
<path d="M1.18147 22.8727H1.15604C1.1353 23.0958 1.09984 23.5133 1.04899 24.1252C0.998816 24.7374 0.974061 25.0705 0.974061 25.1247C0.974061 25.2291 1.02625 25.2813 1.13062 25.2813L1.33803 25.2759L1.34873 25.296L1.30324 25.5235C1.26577 25.5198 1.19886 25.5155 1.10252 25.5101C1.00684 25.5054 0.910167 25.5034 0.81215 25.5034C0.727181 25.5034 0.640204 25.5091 0.55122 25.5208C0.461901 25.5322 0.404028 25.5399 0.377266 25.5436L0.40269 25.3107C0.510407 25.2974 0.588018 25.2632 0.63552 25.2077C0.682689 25.1525 0.71313 25.0572 0.726512 24.9213C0.759295 24.6049 0.803453 24.1774 0.858984 23.6394C0.915184 23.1015 0.943285 22.8004 0.943285 22.7362C0.943285 22.6489 0.908494 22.5833 0.838912 22.5395C0.77 22.496 0.659941 22.4686 0.5084 22.4579L0.493681 22.4338L0.533824 22.2558C0.577313 22.2595 0.662952 22.2649 0.790741 22.2719C0.919199 22.2783 1.01721 22.2813 1.08512 22.2813C1.14567 22.2813 1.21224 22.2793 1.2845 22.2746C1.35743 22.2692 1.4056 22.2649 1.42902 22.2612C1.5635 22.6967 1.6943 23.1009 1.82108 23.4735C1.94753 23.8455 2.05124 24.1412 2.13152 24.3607C2.21248 24.5795 2.26333 24.7159 2.28407 24.7701H2.30949C2.35666 24.6454 2.46471 24.3486 2.63331 23.8803C2.80191 23.4113 2.98557 22.875 3.18461 22.2719C3.18461 22.2686 3.23011 22.2699 3.3211 22.2759L3.5178 22.2813C3.58203 22.2813 3.6777 22.2773 3.80549 22.2692C3.93395 22.2605 4.01992 22.2542 4.06375 22.2505L4.07445 22.2719L4.04903 22.4579C3.90451 22.475 3.80181 22.5047 3.74126 22.5475C3.68038 22.5897 3.65027 22.6526 3.65027 22.7362C3.65027 22.8112 3.66533 23.0875 3.69577 23.5645C3.72588 24.0409 3.75464 24.453 3.78141 24.8009C3.79813 24.9394 3.81519 25.0414 3.83225 25.1073C3.84898 25.1726 3.87273 25.2181 3.90317 25.2438C3.93328 25.2689 3.97543 25.2813 4.02896 25.2813C4.05906 25.2813 4.08783 25.2796 4.11459 25.2759C4.14203 25.2726 4.16076 25.2706 4.1708 25.2706L4.18016 25.2907L4.13467 25.5181C4.10155 25.5155 4.03866 25.5121 3.94599 25.5088C3.853 25.5051 3.75598 25.5034 3.65429 25.5034C3.5633 25.5034 3.46093 25.5091 3.34786 25.5208C3.23546 25.5322 3.1622 25.5399 3.12841 25.5436L3.14848 25.3107C3.25286 25.2974 3.32846 25.2706 3.37596 25.2304C3.42313 25.1903 3.44688 25.1328 3.44688 25.0578C3.44688 24.9876 3.42213 24.6591 3.37328 24.073C3.32511 23.4862 3.29233 23.0861 3.2756 22.8727H3.25018L2.27336 25.5636L2.15293 25.5998L1.18147 22.8727Z" fill="white"/>
<path d="M8.32677 25.5188L8.34684 25.3221C8.51879 25.3087 8.63654 25.2886 8.7001 25.2619C8.76433 25.2344 8.79644 25.1903 8.79644 25.1294C8.79644 25.0625 8.78105 24.9819 8.75095 24.8872L8.58368 24.3359C8.5034 24.3325 8.32811 24.3305 8.05781 24.3305C7.89623 24.3305 7.71258 24.3439 7.50651 24.3707L7.31917 24.8966C7.28873 24.9875 7.27368 25.0538 7.27368 25.0946C7.27368 25.1689 7.29709 25.2217 7.3446 25.2538C7.39177 25.2859 7.46938 25.302 7.57743 25.302H7.86646L7.87583 25.3221L7.84639 25.5388C7.80524 25.5362 7.71191 25.5295 7.56672 25.5188C7.42221 25.5087 7.2807 25.5041 7.14254 25.5041C7.01743 25.5041 6.90202 25.5057 6.79597 25.5094C6.68959 25.5128 6.62001 25.5161 6.58589 25.5188L6.62737 25.2819C6.72104 25.2712 6.79631 25.2384 6.85351 25.1829C6.91139 25.1277 6.96725 25.031 7.02078 24.8925L8.00696 22.3073L8.32677 22.2217H8.36691C8.38732 22.303 8.4385 22.4903 8.52079 22.7837C8.60376 23.0764 8.70478 23.4233 8.82454 23.8247C8.94397 24.2262 9.05938 24.5955 9.17111 24.9327C9.21126 25.0578 9.26478 25.1454 9.33168 25.1963C9.39926 25.2465 9.50765 25.2779 9.65684 25.2913L9.66621 25.3114L9.63142 25.5188C9.59027 25.5188 9.51668 25.5161 9.41063 25.5107C9.30425 25.5061 9.19921 25.5041 9.09484 25.5041C8.93326 25.5041 8.77704 25.5107 8.6265 25.5241C8.47664 25.5375 8.38163 25.5475 8.34149 25.5549L8.32677 25.5188ZM8.04309 24.1231C8.16419 24.1231 8.32075 24.1148 8.51276 24.0977L8.11401 22.773H8.07788L7.5975 24.1231H8.04309Z" fill="white"/>
<path d="M12.5742 22.7729C12.5742 22.6652 12.5611 22.5929 12.5354 22.5561C12.5103 22.5187 12.4608 22.4999 12.3869 22.4999C12.3527 22.4999 12.3189 22.5019 12.2852 22.5053C12.251 22.508 12.2276 22.5093 12.2142 22.5093L12.2049 22.4892L12.2397 22.2671C12.2798 22.2708 12.3554 22.2745 12.4671 22.2778C12.5785 22.2805 12.6899 22.2818 12.8017 22.2818C12.8927 22.2818 12.996 22.2761 13.1121 22.2644C13.2289 22.2531 13.3055 22.2437 13.3423 22.2363L13.3222 22.4638C13.1971 22.4845 13.1111 22.5157 13.0639 22.5575C13.0164 22.5996 12.991 22.6695 12.9877 22.7676L12.9275 24.938C12.9238 25.0728 12.9372 25.1638 12.9676 25.2109C12.9977 25.2584 13.0586 25.2819 13.1496 25.2819C13.2004 25.2819 13.2476 25.2802 13.2914 25.2765C13.3349 25.2732 13.364 25.2695 13.3784 25.2658L13.3878 25.2859L13.3423 25.5187C13.2984 25.516 13.2158 25.5127 13.0947 25.5093C12.9733 25.5057 12.8485 25.504 12.72 25.504L12.138 25.5093L12.1888 25.2819C12.2965 25.2712 12.3765 25.2544 12.4283 25.231C12.4809 25.2069 12.5173 25.1701 12.5381 25.1199C12.5585 25.0691 12.5688 24.9948 12.5688 24.8965L12.5742 22.7729ZM13.9846 22.8987C14.0889 22.7943 14.1411 22.707 14.1411 22.6364C14.1411 22.5481 14.0347 22.4973 13.8226 22.4839L13.8133 22.4638L13.8481 22.247C13.8882 22.2497 13.9715 22.2564 14.0983 22.2671C14.2247 22.2771 14.3271 22.2818 14.4047 22.2818C14.4857 22.2818 14.576 22.2798 14.675 22.2751C14.7747 22.2698 14.8399 22.2654 14.8704 22.2618L14.8905 22.2965L14.8543 22.5039C14.7667 22.521 14.6861 22.5568 14.6121 22.611C14.5379 22.6645 14.4251 22.7709 14.2736 22.9295L13.4587 23.7845L14.3084 24.8925C14.4295 25.0504 14.5385 25.1614 14.6349 25.2257C14.7312 25.2899 14.8383 25.322 14.956 25.322L14.9761 25.3421L14.9453 25.5147C14.9085 25.5207 14.8356 25.5324 14.7259 25.5495C14.6161 25.5662 14.5496 25.5749 14.5265 25.5749C14.4452 25.5749 14.3555 25.5368 14.2575 25.4612C14.1602 25.3856 14.0608 25.2785 13.9591 25.14L13.0746 23.9103L13.08 23.8394L13.9846 22.8987Z" fill="white"/>
<path d="M17.5739 25.3314C17.7325 25.3013 17.8395 25.2564 17.8951 25.1976C17.9513 25.1387 17.9794 25.0383 17.9794 24.8965L17.9847 22.7729C17.9847 22.6652 17.9717 22.5929 17.9459 22.5561C17.9208 22.5187 17.8713 22.4999 17.7974 22.4999L17.5846 22.5093L17.5739 22.4892L17.61 22.2671C17.6636 22.2671 17.7054 22.2691 17.7358 22.2725L18.2122 22.2818C18.3637 22.2818 18.5574 22.2668 18.7929 22.2363L18.7729 22.4638C18.6344 22.4809 18.5407 22.509 18.4919 22.5481C18.4437 22.5866 18.4159 22.6548 18.4089 22.7528C18.3882 23.1472 18.3714 23.5594 18.358 23.9892C18.3447 24.4194 18.338 24.7356 18.338 24.938C18.338 25.0765 18.353 25.1681 18.3835 25.2136C18.4136 25.2591 18.4725 25.2819 18.5601 25.2819C18.618 25.2819 18.7076 25.2765 18.8291 25.2658L18.8384 25.2859L18.7929 25.5187C18.7454 25.5187 18.7086 25.5174 18.6819 25.5147C18.4464 25.5073 18.2624 25.504 18.1306 25.504C17.9653 25.504 17.77 25.5241 17.5445 25.5642L17.5739 25.3314Z" fill="white"/>
<path d="M24.205 25.7061C23.9112 25.2511 23.6256 24.8172 23.3472 24.4041C23.0689 23.9913 22.8401 23.6574 22.6608 23.4032C22.4821 23.1483 22.3694 22.9867 22.3222 22.9188H22.2982L22.2727 25.0785C22.2727 25.1534 22.2841 25.2063 22.3075 25.2364C22.3316 25.2668 22.3721 25.2819 22.4293 25.2819L22.6875 25.2765L22.6969 25.2966L22.6514 25.5241C22.6146 25.5204 22.539 25.516 22.4239 25.5107C22.3095 25.506 22.2065 25.504 22.1148 25.504C22.0309 25.504 21.9389 25.5097 21.8392 25.5214C21.7402 25.5328 21.6753 25.5405 21.6452 25.5441L21.6706 25.3113C21.775 25.2979 21.8519 25.2672 21.9021 25.219C21.9529 25.1701 21.98 25.0945 21.9837 24.9928L22.0493 22.7823C22.0493 22.6779 22.0178 22.604 21.9556 22.5602C21.893 22.5167 21.7776 22.4862 21.609 22.4692L21.5943 22.4438L21.6345 22.2564C21.6646 22.2601 21.7301 22.2655 21.8312 22.2725C21.9329 22.2788 22.0121 22.2818 22.0693 22.2818C22.1406 22.2818 22.2098 22.2798 22.2767 22.2752C22.3443 22.2698 22.3885 22.2655 22.4092 22.2618C22.6581 22.6498 22.9083 23.0295 23.1599 23.4005C23.4115 23.7708 23.6215 24.0759 23.7901 24.3158C23.9587 24.5549 24.0648 24.7065 24.1086 24.7707H24.134V22.7221C24.134 22.5769 24.0782 22.504 23.9668 22.504L23.7741 22.5093L23.7647 22.4892L23.8102 22.2618C23.844 22.2655 23.9079 22.2698 24.0016 22.2752C24.0959 22.2798 24.1922 22.2818 24.2906 22.2818C24.3779 22.2818 24.4746 22.2762 24.581 22.2644C24.687 22.2531 24.7569 22.2454 24.791 22.2417L24.7656 22.4745C24.6479 22.4916 24.5616 22.5247 24.5074 22.5735C24.4538 22.6217 24.4251 22.695 24.4217 22.793L24.3508 25.6351L24.205 25.7061Z" fill="white"/>
<path d="M28.8714 25.5643C28.5743 25.5643 28.314 25.5007 28.0912 25.3729C27.8691 25.2445 27.6972 25.0635 27.5761 24.8296C27.4546 24.5951 27.3941 24.3192 27.3941 24.0014C27.3941 23.6545 27.468 23.3464 27.6162 23.0767C27.7651 22.8064 27.9742 22.5963 28.2438 22.4465C28.5141 22.2966 28.8225 22.2217 29.1698 22.2217C29.2945 22.2217 29.4294 22.231 29.5739 22.2498C29.7191 22.2678 29.8442 22.2859 29.9485 22.3046C30.0529 22.3234 30.1202 22.3364 30.1506 22.3434L30.1707 22.3729C30.1643 22.3936 30.1526 22.4425 30.1359 22.5201C30.1188 22.5977 30.1011 22.699 30.0824 22.8238C30.0636 22.9479 30.0492 23.0791 30.0395 23.2172L29.8013 23.2386C29.8047 23.2219 29.8084 23.1888 29.8121 23.1396C29.8154 23.0908 29.8174 23.0322 29.8174 22.9643C29.8174 22.8101 29.7572 22.6977 29.6368 22.6271C29.517 22.5559 29.3226 22.5201 29.0533 22.5201C28.6686 22.5201 28.3696 22.6358 28.1555 22.8666C27.9414 23.0978 27.8343 23.422 27.8343 23.8394C27.8343 24.1332 27.8815 24.3914 27.9762 24.6142C28.0705 24.8363 28.2053 25.0083 28.3803 25.1294C28.5559 25.2508 28.7583 25.3114 28.9878 25.3114C29.1089 25.3114 29.2199 25.2973 29.321 25.2685C29.4227 25.2401 29.5076 25.2093 29.5765 25.1762C29.6461 25.1424 29.6809 25.1237 29.6809 25.12V24.5031C29.6809 24.3881 29.6629 24.3138 29.6274 24.2797C29.5916 24.2459 29.5167 24.2288 29.4026 24.2288H29.0533L29.0426 24.2088L29.0881 23.9559C29.129 23.9595 29.2153 23.9639 29.3464 23.9692C29.4782 23.9739 29.6067 23.9759 29.7318 23.9759C29.8228 23.9759 29.9117 23.9729 29.9994 23.9666C30.0867 23.9595 30.1426 23.9545 30.1667 23.9519L30.1867 24.0629C30.1258 24.1131 30.0844 24.1927 30.0623 24.3024C30.0409 24.4122 30.0302 24.5921 30.0302 24.8417C30.0302 25.0371 30.0415 25.1852 30.065 25.2859L30.0342 25.3314C30.0342 25.3351 29.9743 25.3582 29.8549 25.401C29.7351 25.4432 29.5886 25.4806 29.4146 25.5134C29.2414 25.5472 29.0604 25.5643 28.8714 25.5643Z" fill="white"/>
<path d="M36.3494 25.3314C36.508 25.3013 36.615 25.2564 36.6705 25.1976C36.7267 25.1387 36.7548 25.0383 36.7548 24.8965L36.7602 22.7729C36.7602 22.6652 36.7472 22.5929 36.7214 22.5561C36.6963 22.5187 36.6468 22.4999 36.5729 22.4999L36.3601 22.5093L36.3494 22.4892L36.3855 22.2671C36.4391 22.2671 36.4809 22.2691 36.5113 22.2725L36.9877 22.2818C37.1392 22.2818 37.3329 22.2668 37.5684 22.2363L37.5483 22.4638C37.4098 22.4809 37.3162 22.509 37.2673 22.5481C37.2192 22.5866 37.1914 22.6548 37.1844 22.7528C37.1636 23.1472 37.1469 23.5594 37.1335 23.9892C37.1201 24.4194 37.1135 24.7356 37.1135 24.938C37.1135 25.0765 37.1285 25.1681 37.159 25.2136C37.1891 25.2591 37.2479 25.2819 37.3356 25.2819C37.3935 25.2819 37.4831 25.2765 37.6045 25.2658L37.6139 25.2859L37.5684 25.5187C37.5209 25.5187 37.4841 25.5174 37.4574 25.5147C37.2218 25.5073 37.0379 25.504 36.9061 25.504C36.7408 25.504 36.5454 25.5241 36.32 25.5642L36.3494 25.3314Z" fill="white"/>
<path d="M42.9804 25.7061C42.6867 25.2511 42.401 24.8172 42.1227 24.4041C41.8444 23.9913 41.6156 23.6574 41.4363 23.4032C41.2576 23.1483 41.1449 22.9867 41.0977 22.9188H41.0736L41.0482 25.0785C41.0482 25.1534 41.0596 25.2063 41.083 25.2364C41.1071 25.2668 41.1476 25.2819 41.2048 25.2819L41.463 25.2765L41.4724 25.2966L41.4269 25.5241C41.3901 25.5204 41.3145 25.516 41.1994 25.5107C41.085 25.506 40.982 25.504 40.8903 25.504C40.8064 25.504 40.7144 25.5097 40.6147 25.5214C40.5157 25.5328 40.4508 25.5405 40.4207 25.5441L40.4461 25.3113C40.5504 25.2979 40.6274 25.2672 40.6776 25.219C40.7284 25.1701 40.7555 25.0945 40.7592 24.9928L40.8248 22.7823C40.8248 22.6779 40.7933 22.604 40.7311 22.5602C40.6685 22.5167 40.5531 22.4862 40.3845 22.4692L40.3698 22.4438L40.4099 22.2564C40.4401 22.2601 40.5056 22.2655 40.6066 22.2725C40.7083 22.2788 40.7876 22.2818 40.8448 22.2818C40.9161 22.2818 40.9853 22.2798 41.0522 22.2752C41.1198 22.2698 41.164 22.2655 41.1847 22.2618C41.4336 22.6498 41.6838 23.0295 41.9354 23.4005C42.187 23.7708 42.397 24.0759 42.5656 24.3158C42.7342 24.5549 42.8403 24.7065 42.8841 24.7707H42.9095V22.7221C42.9095 22.5769 42.8537 22.504 42.7423 22.504L42.5496 22.5093L42.5402 22.4892L42.5857 22.2618C42.6195 22.2655 42.6834 22.2698 42.7771 22.2752C42.8714 22.2798 42.9677 22.2818 43.0661 22.2818C43.1534 22.2818 43.2501 22.2762 43.3565 22.2644C43.4625 22.2531 43.5324 22.2454 43.5665 22.2417L43.5411 22.4745C43.4234 22.4916 43.3371 22.5247 43.2829 22.5735C43.2293 22.6217 43.2006 22.695 43.1972 22.793L43.1263 25.6351L42.9804 25.7061Z" fill="white"/>
<path d="M48.8511 25.7061C48.5573 25.2511 48.2717 24.8172 47.9933 24.4041C47.715 23.9913 47.4862 23.6574 47.3069 23.4032C47.1283 23.1483 47.0155 22.9867 46.9683 22.9188H46.9443L46.9188 25.0785C46.9188 25.1534 46.9302 25.2063 46.9536 25.2364C46.9777 25.2668 47.0182 25.2819 47.0754 25.2819L47.3336 25.2765L47.343 25.2966L47.2975 25.5241C47.2607 25.5204 47.1851 25.516 47.07 25.5107C46.9556 25.506 46.8526 25.504 46.7609 25.504C46.677 25.504 46.585 25.5097 46.4853 25.5214C46.3863 25.5328 46.3214 25.5405 46.2913 25.5441L46.3167 25.3113C46.4211 25.2979 46.498 25.2672 46.5482 25.219C46.599 25.1701 46.6261 25.0945 46.6298 24.9928L46.6954 22.7823C46.6954 22.6779 46.6639 22.604 46.6017 22.5602C46.5391 22.5167 46.4237 22.4862 46.2551 22.4692L46.2404 22.4438L46.2806 22.2564C46.3107 22.2601 46.3762 22.2655 46.4773 22.2725C46.579 22.2788 46.6582 22.2818 46.7154 22.2818C46.7867 22.2818 46.8559 22.2798 46.9229 22.2752C46.9904 22.2698 47.0346 22.2655 47.0553 22.2618C47.3042 22.6498 47.5544 23.0295 47.806 23.4005C48.0576 23.7708 48.2676 24.0759 48.4362 24.3158C48.6049 24.5549 48.7109 24.7065 48.7547 24.7707H48.7801V22.7221C48.7801 22.5769 48.7243 22.504 48.6129 22.504L48.4202 22.5093L48.4108 22.4892L48.4563 22.2618C48.4901 22.2655 48.554 22.2698 48.6477 22.2752C48.742 22.2798 48.8383 22.2818 48.9367 22.2818C49.024 22.2818 49.1207 22.2762 49.2271 22.2644C49.3331 22.2531 49.403 22.2454 49.4372 22.2417L49.4117 22.4745C49.294 22.4916 49.2077 22.5247 49.1535 22.5735C49.0999 22.6217 49.0712 22.695 49.0678 22.793L48.9969 25.6351L48.8511 25.7061Z" fill="white"/>
<path d="M53.4411 25.5643C53.1681 25.5643 52.9252 25.4987 52.7131 25.3676C52.5007 25.2364 52.3351 25.0524 52.2167 24.8149C52.0989 24.5767 52.0401 24.3058 52.0401 24.0014C52.0401 23.6715 52.113 23.3708 52.2595 23.0995C52.4067 22.8275 52.6074 22.6134 52.8617 22.4572C53.1166 22.3003 53.3976 22.2217 53.7047 22.2217C53.9847 22.2217 54.2322 22.2879 54.4473 22.4197C54.6631 22.5509 54.8317 22.7348 54.9531 22.971C55.0752 23.2065 55.1364 23.4762 55.1364 23.7792C55.1364 24.1094 55.0608 24.4115 54.9103 24.6851C54.7604 24.9581 54.5564 25.1732 54.2988 25.3301C54.0409 25.4863 53.7548 25.5643 53.4411 25.5643ZM53.5976 25.3074C53.8107 25.3074 53.9997 25.2518 54.165 25.1401C54.3299 25.0287 54.458 24.8735 54.549 24.6744C54.64 24.4757 54.6855 24.2482 54.6855 23.992C54.6855 23.705 54.6363 23.4511 54.5383 23.2306C54.441 23.0095 54.3055 22.8369 54.1315 22.7128C53.9582 22.588 53.7585 22.5254 53.532 22.5254C53.3266 22.5254 53.144 22.5813 52.9834 22.6927C52.8235 22.8034 52.6987 22.9583 52.6087 23.157C52.5194 23.3561 52.4749 23.5835 52.4749 23.8394C52.4749 24.1268 52.5221 24.381 52.6168 24.6022C52.7111 24.8226 52.8436 24.9952 53.0142 25.12C53.1845 25.2451 53.3788 25.3074 53.5976 25.3074Z" fill="white"/>
<path d="M58.8767 25.5892C58.8266 25.4206 58.7128 25.05 58.5355 24.4773C58.3589 23.9039 58.1809 23.3422 58.0016 22.7926C57.9712 22.6946 57.919 22.6226 57.845 22.5771C57.7708 22.5317 57.6684 22.5072 57.5373 22.5036L57.5266 22.4835L57.5614 22.2667C57.6059 22.2667 57.6878 22.2694 57.8076 22.2747C57.927 22.2794 58.0407 22.2814 58.1488 22.2814C58.2602 22.2814 58.4007 22.2741 58.5703 22.2587C58.7406 22.2436 58.853 22.2329 58.9075 22.2266L58.9222 22.2614L58.9022 22.4581C58.7202 22.4724 58.5997 22.4928 58.5409 22.5196C58.482 22.5464 58.4525 22.5969 58.4525 22.6708C58.4525 22.7387 58.5415 23.089 58.7202 23.7212C58.8985 24.3528 59.0216 24.7833 59.0895 25.0125H59.135C59.6943 23.57 59.974 22.7949 59.974 22.6869C59.974 22.6156 59.9472 22.5638 59.8937 22.5317C59.8402 22.4995 59.7508 22.4835 59.6261 22.4835H59.3625L59.3531 22.4634L59.3825 22.2466C59.426 22.2493 59.523 22.256 59.6729 22.2667C59.8234 22.2767 59.968 22.2814 60.1064 22.2814C60.2312 22.2814 60.3466 22.2801 60.453 22.2774C60.5591 22.2741 60.629 22.2704 60.6631 22.2667L60.6216 22.5036C60.5172 22.5072 60.4443 22.5243 60.4035 22.5544C60.3634 22.5848 60.3249 22.6491 60.2884 22.7471L59.2006 25.4782L58.8767 25.5892Z" fill="white"/>
<path d="M64.5562 25.5188L64.5763 25.3221C64.7483 25.3087 64.866 25.2886 64.9296 25.2619C64.9938 25.2344 65.0259 25.1903 65.0259 25.1294C65.0259 25.0625 65.0105 24.9819 64.9804 24.8872L64.8132 24.3359C64.7329 24.3325 64.5576 24.3305 64.2873 24.3305C64.1257 24.3305 63.9421 24.3439 63.736 24.3707L63.5487 24.8966C63.5182 24.9875 63.5032 25.0538 63.5032 25.0946C63.5032 25.1689 63.5266 25.2217 63.5741 25.2538C63.6212 25.2859 63.6989 25.302 63.8069 25.302H64.0959L64.1053 25.3221L64.0759 25.5388C64.0347 25.5362 63.9414 25.5295 63.7962 25.5188C63.6517 25.5087 63.5102 25.5041 63.372 25.5041C63.2469 25.5041 63.1315 25.5057 63.0255 25.5094C62.9191 25.5128 62.8495 25.5161 62.8154 25.5188L62.8568 25.2819C62.9505 25.2712 63.0258 25.2384 63.083 25.1829C63.1409 25.1277 63.1967 25.031 63.2503 24.8925L64.2364 22.3073L64.5562 22.2217H64.5964C64.6168 22.303 64.668 22.4903 64.7503 22.7837C64.8332 23.0764 64.9343 23.4233 65.054 23.8247C65.1734 24.2262 65.2889 24.5955 65.4006 24.9327C65.4407 25.0578 65.4943 25.1454 65.5612 25.1963C65.6287 25.2465 65.7371 25.2779 65.8863 25.2913L65.8957 25.3114L65.8609 25.5188C65.8198 25.5188 65.7462 25.5161 65.6401 25.5107C65.5337 25.5061 65.4287 25.5041 65.3243 25.5041C65.1627 25.5041 65.0065 25.5107 64.856 25.5241C64.7061 25.5375 64.6111 25.5475 64.571 25.5549L64.5562 25.5188ZM64.2726 24.1231C64.3937 24.1231 64.5502 24.1148 64.7422 24.0977L64.3435 22.773H64.3074L63.827 24.1231H64.2726Z" fill="white"/>
<path d="M68.7527 25.3074C68.9213 25.2933 69.0371 25.2719 69.1006 25.2431C69.1649 25.2147 69.207 25.1625 69.2278 25.0866C69.2482 25.011 69.2585 24.8772 69.2585 24.6851V22.4799C68.9712 22.49 68.7761 22.506 68.6738 22.5281C68.5711 22.5495 68.5012 22.5984 68.4637 22.674C68.4269 22.7499 68.3934 22.8974 68.3633 23.1169L68.1252 23.1369C68.1653 22.8168 68.1907 22.5251 68.2014 22.2618L68.2469 22.2217L68.6657 22.2765H70.234L70.6649 22.2217L70.7104 22.2618C70.7201 22.5385 70.7452 22.8235 70.7853 23.1169L70.5485 23.1369C70.511 22.9141 70.4735 22.7643 70.4361 22.6873C70.3993 22.6097 70.3337 22.5596 70.2394 22.5361C70.1447 22.512 69.9627 22.4933 69.6934 22.4799C69.6727 22.6817 69.6539 23.0389 69.6372 23.5518C69.6202 24.0639 69.6118 24.5259 69.6118 24.938C69.6118 25.0631 69.6335 25.1518 69.6774 25.2043C69.7218 25.2562 69.7964 25.2819 69.9008 25.2819C70.0015 25.2819 70.0942 25.2766 70.1791 25.2659L70.1939 25.2859L70.1484 25.5188L69.9811 25.5148L69.4044 25.5041C69.2187 25.5041 68.9876 25.5107 68.7112 25.5241L68.7527 25.3074Z" fill="white"/>
<path d="M73.3887 25.3314C73.5473 25.3013 73.6543 25.2564 73.7098 25.1976C73.766 25.1387 73.7941 25.0383 73.7941 24.8965L73.7995 22.7729C73.7995 22.6652 73.7864 22.5929 73.7607 22.5561C73.7356 22.5187 73.6861 22.4999 73.6122 22.4999L73.3994 22.5093L73.3887 22.4892L73.4248 22.2671C73.4783 22.2671 73.5202 22.2691 73.5506 22.2725L74.027 22.2818C74.1785 22.2818 74.3722 22.2668 74.6077 22.2363L74.5876 22.4638C74.4491 22.4809 74.3555 22.509 74.3066 22.5481C74.2585 22.5866 74.2307 22.6548 74.2237 22.7528C74.2029 23.1472 74.1862 23.5594 74.1728 23.9892C74.1594 24.4194 74.1527 24.7356 74.1527 24.938C74.1527 25.0765 74.1678 25.1681 74.1982 25.2136C74.2284 25.2591 74.2872 25.2819 74.3749 25.2819C74.4327 25.2819 74.5224 25.2765 74.6438 25.2658L74.6532 25.2859L74.6077 25.5187C74.5602 25.5187 74.5234 25.5174 74.4966 25.5147C74.2611 25.5073 74.0771 25.504 73.9453 25.504C73.7801 25.504 73.5847 25.5241 73.3593 25.5642L73.3887 25.3314Z" fill="white"/>
<path d="M78.7393 25.5643C78.4663 25.5643 78.2234 25.4987 78.0113 25.3676C77.7989 25.2364 77.6333 25.0524 77.5149 24.8149C77.3971 24.5767 77.3383 24.3058 77.3383 24.0014C77.3383 23.6715 77.4112 23.3708 77.5577 23.0995C77.7049 22.8275 77.9056 22.6134 78.1599 22.4572C78.4148 22.3003 78.6958 22.2217 79.0029 22.2217C79.2829 22.2217 79.5304 22.2879 79.7455 22.4197C79.9613 22.5509 80.1299 22.7348 80.2513 22.971C80.3734 23.2065 80.4346 23.4762 80.4346 23.7792C80.4346 24.1094 80.359 24.4115 80.2085 24.6851C80.0586 24.9581 79.8546 25.1732 79.597 25.3301C79.3391 25.4863 79.053 25.5643 78.7393 25.5643ZM78.8958 25.3074C79.1089 25.3074 79.2979 25.2518 79.4632 25.1401C79.6281 25.0287 79.7562 24.8735 79.8472 24.6744C79.9382 24.4757 79.9837 24.2482 79.9837 23.992C79.9837 23.705 79.9345 23.4511 79.8365 23.2306C79.7392 23.0095 79.6037 22.8369 79.4297 22.7128C79.2564 22.588 79.0567 22.5254 78.8302 22.5254C78.6248 22.5254 78.4422 22.5813 78.2816 22.6927C78.1217 22.8034 77.9969 22.9583 77.907 23.157C77.8176 23.3561 77.7731 23.5835 77.7731 23.8394C77.7731 24.1268 77.8203 24.381 77.915 24.6022C78.0093 24.8226 78.1418 24.9952 78.3124 25.12C78.4827 25.2451 78.677 25.3074 78.8958 25.3074Z" fill="white"/>
<path d="M85.754 25.7061C85.4603 25.2511 85.1746 24.8172 84.8962 24.4041C84.6179 23.9913 84.3891 23.6574 84.2098 23.4032C84.0312 23.1483 83.9184 22.9867 83.8713 22.9188H83.8472L83.8217 25.0785C83.8217 25.1534 83.8331 25.2063 83.8565 25.2364C83.8806 25.2668 83.9211 25.2819 83.9783 25.2819L84.2366 25.2765L84.2459 25.2966L84.2004 25.5241C84.1636 25.5204 84.088 25.516 83.973 25.5107C83.8585 25.506 83.7555 25.504 83.6638 25.504C83.5799 25.504 83.4879 25.5097 83.3882 25.5214C83.2892 25.5328 83.2243 25.5405 83.1942 25.5441L83.2196 25.3113C83.324 25.2979 83.4009 25.2672 83.4511 25.219C83.5019 25.1701 83.529 25.0945 83.5327 24.9928L83.5983 22.7823C83.5983 22.6779 83.5668 22.604 83.5046 22.5602C83.4421 22.5167 83.3266 22.4862 83.158 22.4692L83.1433 22.4438L83.1835 22.2564C83.2136 22.2601 83.2791 22.2655 83.3802 22.2725C83.4819 22.2788 83.5611 22.2818 83.6184 22.2818C83.6896 22.2818 83.7589 22.2798 83.8258 22.2752C83.8933 22.2698 83.9375 22.2655 83.9582 22.2618C84.2071 22.6498 84.4573 23.0295 84.7089 23.4005C84.9605 23.7708 85.1706 24.0759 85.3392 24.3158C85.5078 24.5549 85.6138 24.7065 85.6576 24.7707H85.6831V22.7221C85.6831 22.5769 85.6272 22.504 85.5158 22.504L85.3231 22.5093L85.3137 22.4892L85.3592 22.2618C85.393 22.2655 85.4569 22.2698 85.5506 22.2752C85.6449 22.2798 85.7413 22.2818 85.8396 22.2818C85.9269 22.2818 86.0236 22.2762 86.13 22.2644C86.236 22.2531 86.3059 22.2454 86.3401 22.2417L86.3146 22.4745C86.1969 22.4916 86.1106 22.5247 86.0564 22.5735C86.0029 22.6217 85.9741 22.695 85.9707 22.793L85.8998 25.6351L85.754 25.7061Z" fill="white"/>
<path d="M93.2473 25.5892C93.1998 25.4206 93.0911 25.05 92.9208 24.4773C92.7502 23.9039 92.5776 23.3422 92.403 22.7926C92.3716 22.6946 92.319 22.6226 92.2451 22.5771C92.1708 22.5317 92.0715 22.5072 91.9467 22.5036L91.9427 22.4835L91.9721 22.2667C92.0156 22.2667 92.0946 22.2694 92.209 22.2747C92.324 22.2794 92.4354 22.2814 92.5435 22.2814C92.6924 22.2814 92.8409 22.2741 92.9891 22.2587C93.1369 22.2436 93.233 22.2329 93.2768 22.2266L93.2928 22.2614L93.2728 22.4581C93.1005 22.4724 92.9851 22.4928 92.9262 22.5196C92.8673 22.5464 92.8379 22.5952 92.8379 22.6655C92.8379 22.7237 92.8837 22.9271 92.9757 23.2756C93.0684 23.6245 93.1647 23.9741 93.2647 24.3247C93.3644 24.6753 93.4297 24.9048 93.4601 25.0125H93.4895L94.2027 23.0709L94.1118 22.7926C94.0776 22.6946 94.0254 22.6236 93.9552 22.5798C93.8846 22.5363 93.7853 22.5109 93.6568 22.5036L93.6461 22.4835L93.6822 22.2667C93.7257 22.2667 93.8047 22.2694 93.9191 22.2747C94.0341 22.2794 94.1455 22.2814 94.2536 22.2814C94.3821 22.2814 94.5242 22.2741 94.6805 22.2587C94.8373 22.2436 94.9394 22.2329 94.9869 22.2266L95.0016 22.2614L94.9815 22.4581C94.8066 22.4724 94.6891 22.4928 94.6296 22.5196C94.5707 22.5464 94.5413 22.5969 94.5413 22.6708C94.5413 22.7424 94.6289 23.0933 94.8049 23.7239C94.9805 24.3538 95.102 24.7833 95.1689 25.0125H95.1996C95.2057 24.9931 95.213 24.9724 95.221 24.9509C95.2297 24.9289 95.2398 24.9024 95.2505 24.872C95.7623 23.4958 96.0186 22.7588 96.0186 22.6614C96.0186 22.5972 95.9911 22.5517 95.9369 22.525C95.8834 22.4975 95.7958 22.4835 95.6747 22.4835H95.4218L95.4124 22.4634L95.4472 22.2466C95.4907 22.2493 95.585 22.256 95.7295 22.2667C95.8747 22.2767 96.0149 22.2814 96.1497 22.2814C96.2718 22.2814 96.3832 22.2801 96.4842 22.2774C96.5849 22.2741 96.6522 22.2704 96.6863 22.2667L96.6515 22.5036C96.5498 22.5109 96.4789 22.5286 96.4387 22.5571C96.3986 22.5858 96.3614 22.6491 96.3277 22.7471L95.2652 25.4782L94.9521 25.5892C94.918 25.4715 94.8397 25.2005 94.7166 24.7757C94.5935 24.3501 94.461 23.9069 94.3192 23.4456H94.2884L93.5712 25.4782L93.2473 25.5892Z" fill="white"/>
<path d="M100.528 25.5643C100.255 25.5643 100.012 25.4987 99.8001 25.3676C99.5876 25.2364 99.422 25.0524 99.3036 24.8149C99.1859 24.5767 99.127 24.3058 99.127 24.0014C99.127 23.6715 99.1999 23.3708 99.3464 23.0995C99.4936 22.8275 99.6943 22.6134 99.9486 22.4572C100.203 22.3003 100.484 22.2217 100.792 22.2217C101.072 22.2217 101.319 22.2879 101.534 22.4197C101.75 22.5509 101.919 22.7348 102.04 22.971C102.162 23.2065 102.223 23.4762 102.223 23.7792C102.223 24.1094 102.148 24.4115 101.997 24.6851C101.847 24.9581 101.643 25.1732 101.386 25.3301C101.128 25.4863 100.842 25.5643 100.528 25.5643ZM100.685 25.3074C100.898 25.3074 101.087 25.2518 101.252 25.1401C101.417 25.0287 101.545 24.8735 101.636 24.6744C101.727 24.4757 101.772 24.2482 101.772 23.992C101.772 23.705 101.723 23.4511 101.625 23.2306C101.528 23.0095 101.392 22.8369 101.218 22.7128C101.045 22.588 100.845 22.5254 100.619 22.5254C100.414 22.5254 100.231 22.5813 100.07 22.6927C99.9104 22.8034 99.7857 22.9583 99.6957 23.157C99.6064 23.3561 99.5619 23.5835 99.5619 23.8394C99.5619 24.1268 99.609 24.381 99.7037 24.6022C99.798 24.8226 99.9305 24.9952 100.101 25.12C100.271 25.2451 100.466 25.3074 100.685 25.3074Z" fill="white"/>
<path d="M107.248 25.5842C107.164 25.5842 107.074 25.5414 106.978 25.4558C106.882 25.3701 106.793 25.2531 106.713 25.1039L106.171 24.123H105.751L105.736 24.8764C105.736 25.0048 105.745 25.0972 105.762 25.1534C105.778 25.2089 105.81 25.2457 105.858 25.2644C105.905 25.2825 105.986 25.2912 106.1 25.2912L106.111 25.3113L106.065 25.524C106.024 25.5203 105.943 25.5167 105.822 25.5133C105.7 25.5106 105.574 25.5093 105.443 25.5093C105.325 25.5093 105.22 25.5106 105.129 25.5133C105.038 25.5167 104.977 25.5203 104.947 25.524L104.992 25.2965C105.1 25.2832 105.181 25.2651 105.234 25.2417C105.289 25.2176 105.326 25.1798 105.347 25.1279C105.367 25.0754 105.378 24.9981 105.378 24.8964L105.383 22.7729C105.383 22.6652 105.37 22.5929 105.344 22.5561C105.319 22.5186 105.269 22.4999 105.196 22.4999C105.161 22.4999 105.128 22.5019 105.094 22.5053C105.06 22.5079 105.036 22.5093 105.023 22.5093L105.014 22.4892L105.048 22.2671C105.088 22.2708 105.164 22.2744 105.276 22.2778C105.387 22.2805 105.499 22.2818 105.61 22.2818C105.724 22.2818 105.845 22.2798 105.972 22.2751C106.098 22.2697 106.185 22.2654 106.233 22.2617C106.546 22.2617 106.793 22.3326 106.975 22.4745C107.157 22.6163 107.248 22.81 107.248 23.0552C107.248 23.2579 107.183 23.4433 107.053 23.6119C106.923 23.7805 106.741 23.919 106.506 24.0267L107.061 24.9072C107.159 25.0687 107.254 25.1808 107.347 25.243C107.44 25.3056 107.554 25.3367 107.688 25.3367L107.709 25.3568L107.679 25.5294L107.248 25.5842ZM106.282 23.8902C106.282 23.9009 106.332 23.8795 106.433 23.826C106.535 23.7718 106.626 23.6888 106.708 23.5771C106.789 23.4657 106.829 23.3225 106.829 23.1475C106.829 22.7026 106.521 22.4798 105.903 22.4798C105.869 22.4798 105.847 22.4875 105.835 22.5026C105.823 22.518 105.816 22.5491 105.812 22.5962C105.782 23.1121 105.765 23.5262 105.762 23.8393L106.282 23.8902Z" fill="white"/>
<path d="M110.707 22.7729C110.707 22.6652 110.694 22.5929 110.669 22.5561C110.644 22.5187 110.594 22.4999 110.52 22.4999C110.486 22.4999 110.452 22.5019 110.418 22.5053C110.384 22.508 110.361 22.5093 110.347 22.5093L110.338 22.4892L110.373 22.2671C110.413 22.2708 110.489 22.2745 110.6 22.2778C110.712 22.2805 110.823 22.2818 110.935 22.2818C111.026 22.2818 111.129 22.2761 111.245 22.2644C111.362 22.2531 111.439 22.2437 111.476 22.2363L111.455 22.4638C111.33 22.4845 111.244 22.5157 111.197 22.5575C111.15 22.5996 111.124 22.6695 111.121 22.7676L111.061 24.938C111.057 25.0728 111.07 25.1638 111.101 25.2109C111.131 25.2584 111.192 25.2819 111.283 25.2819C111.334 25.2819 111.381 25.2802 111.425 25.2765C111.468 25.2732 111.497 25.2695 111.512 25.2658L111.521 25.2859L111.476 25.5187C111.432 25.516 111.349 25.5127 111.228 25.5093C111.107 25.5057 110.982 25.504 110.853 25.504L110.271 25.5093L110.322 25.2819C110.43 25.2712 110.51 25.2544 110.562 25.231C110.614 25.2069 110.651 25.1701 110.671 25.1199C110.692 25.0691 110.702 24.9948 110.702 24.8965L110.707 22.7729ZM112.118 22.8987C112.222 22.7943 112.274 22.707 112.274 22.6364C112.274 22.5481 112.168 22.4973 111.956 22.4839L111.947 22.4638L111.981 22.247C112.021 22.2497 112.105 22.2564 112.232 22.2671C112.358 22.2771 112.46 22.2818 112.538 22.2818C112.619 22.2818 112.709 22.2798 112.808 22.2751C112.908 22.2698 112.973 22.2654 113.004 22.2618L113.024 22.2965L112.988 22.5039C112.9 22.521 112.819 22.5568 112.745 22.611C112.671 22.6645 112.558 22.7709 112.407 22.9295L111.592 23.7845L112.442 24.8925C112.563 25.0504 112.672 25.1614 112.768 25.2257C112.864 25.2899 112.972 25.322 113.089 25.322L113.109 25.3421L113.079 25.5147C113.042 25.5207 112.969 25.5324 112.859 25.5495C112.749 25.5662 112.683 25.5749 112.66 25.5749C112.578 25.5749 112.489 25.5368 112.391 25.4612C112.293 25.3856 112.194 25.2785 112.092 25.14L111.208 23.9103L111.213 23.8394L112.118 22.8987Z" fill="white"/>
<path d="M69.9645 11.4332H63.1923L61.9078 14.464H59.5473L65.4751 1.03613H67.7968L73.667 14.464H71.2491L69.9645 11.4332ZM69.1014 9.41936L66.5684 3.45275L64.0367 9.41936H69.1014Z" fill="white"/>
<path d="M79.3028 2.05263C78.9067 2.05263 78.5776 2.16771 78.3153 2.39786C78.053 2.62802 77.9219 2.97325 77.9219 3.43356V4.64187H80.5887V6.29175H77.9219V14.4636H75.7354V6.29175H74.392V4.64187H75.7354V3.64364C75.7354 2.51896 76.0807 1.65254 76.7711 1.04504C77.4616 0.437539 78.2862 0.133789 79.2453 0.133789C80.1408 0.133789 80.9085 0.370299 81.5482 0.842985L80.7038 2.53167C80.2693 2.21254 79.8023 2.05263 79.3028 2.05263Z" fill="white"/>
<path d="M84.0976 4.25791V6.29183C84.8015 4.88515 85.978 4.18164 87.6275 4.18164V6.29183C86.6166 6.24099 85.7983 6.47783 85.1721 7.00237C84.5459 7.52624 84.1876 8.23577 84.0976 9.13129V14.4636H81.8924V4.25791H84.0976Z" fill="white"/>
<path d="M89.6203 0.37467C89.8638 0.125113 90.1706 0 90.5409 0C90.9119 0 91.2187 0.125113 91.4615 0.37467C91.7051 0.623557 91.8268 0.946041 91.8268 1.34212C91.8268 1.72582 91.7051 2.04262 91.4615 2.29218C91.2187 2.54106 90.9119 2.66551 90.5409 2.66551C90.1706 2.66551 89.8638 2.54106 89.6203 2.29218C89.3774 2.04262 89.2563 1.72582 89.2563 1.34212C89.2563 0.946041 89.3774 0.623557 89.6203 0.37467ZM91.6355 14.4636H89.449V4.25785H91.6355V14.4636Z" fill="white"/>
<path d="M99.0776 4.18164C100.919 4.18164 102.326 4.73796 103.298 5.85026L102.09 7.26999C101.322 6.49054 100.349 6.10684 99.1726 6.11922C98.2901 6.11922 97.5645 6.42297 96.9955 7.03047C96.4261 7.63797 96.1418 8.42143 96.1418 9.38018C96.1418 10.3393 96.4261 11.1224 96.9955 11.7299C97.5645 12.3374 98.2901 12.6411 99.1726 12.6411C100.478 12.6411 101.481 12.2324 102.185 11.4141L103.413 12.6411C102.454 13.907 101.009 14.5399 99.0776 14.5399C97.5555 14.5399 96.3184 14.0636 95.3657 13.1108C94.413 12.1581 93.9366 10.9147 93.9366 9.38018C93.9366 7.83266 94.413 6.57919 95.3657 5.6201C96.3184 4.66135 97.5555 4.18164 99.0776 4.18164Z" fill="white"/>
<path d="M111.832 14.4636V13.2165C111.103 14.1124 109.978 14.56 108.456 14.56C107.369 14.56 106.499 14.2626 105.847 13.6675C105.195 13.0727 104.869 12.3146 104.869 11.394C104.869 10.461 105.207 9.71973 105.884 9.1701C106.562 8.6198 107.509 8.3378 108.724 8.32442H111.812V8.01799C111.812 7.366 111.604 6.8612 111.189 6.50325C110.774 6.14464 110.17 5.96534 109.377 5.96534C108.392 5.96534 107.388 6.31057 106.365 7.00103L105.463 5.46622C106.243 5.00591 106.943 4.67674 107.564 4.4787C108.184 4.28066 108.948 4.18164 109.856 4.18164C111.16 4.18164 112.17 4.49844 112.887 5.1317C113.603 5.76429 113.967 6.64342 113.98 7.7691L114 14.4636H111.832ZM108.916 12.8138C109.696 12.8138 110.358 12.6318 110.901 12.2678C111.445 11.9032 111.749 11.4392 111.812 10.8762V9.93683H109.05C108.321 9.93683 107.787 10.0425 107.449 10.254C107.109 10.4647 106.94 10.813 106.94 11.299C106.94 11.7593 107.116 12.127 107.467 12.4016C107.82 12.6766 108.303 12.8138 108.916 12.8138Z" fill="white"/>
<path d="M12.3173 1.2168V9.00725C12.3173 10.7853 11.7666 12.1956 10.666 13.2383C9.56612 14.2804 8.07614 14.8012 6.19677 14.8012C4.30368 14.8012 2.79731 14.2804 1.67798 13.2383C0.559328 12.1956 0 10.7853 0 9.00725V1.2168H3.41485V9.00725C3.41485 9.90211 3.67343 10.615 4.19095 11.1455C4.70913 11.6764 5.38387 11.9417 6.2155 11.9417C7.03442 11.9417 7.69009 11.6801 8.18252 11.1562C8.67494 10.6317 8.92115 9.91549 8.92115 9.00725V1.2168H12.3173Z" fill="white"/>
<path d="M21.257 4.19128C22.7145 4.19128 23.8877 4.68069 24.7762 5.65918C25.6654 6.63801 26.1103 7.9266 26.1103 9.52497C26.1103 11.0979 25.6754 12.3641 24.8057 13.3239C23.9359 14.2829 22.7784 14.7623 21.3333 14.7623C19.9771 14.7623 18.922 14.2639 18.1673 13.2663V14.6472H14.8488V0.411133H18.1673V5.66855C18.9354 4.6837 19.9651 4.19128 21.257 4.19128ZM20.4515 12.1343C21.1419 12.1343 21.7012 11.882 22.1294 11.3769C22.5583 10.8711 22.7731 10.2218 22.7731 9.42863C22.7731 8.6358 22.5583 7.98983 22.1294 7.49105C21.7012 6.9926 21.1419 6.74305 20.4515 6.74305C19.7857 6.74305 19.2385 6.9926 18.8096 7.49105C18.3814 7.98983 18.1673 8.6358 18.1673 9.42863C18.1673 10.2342 18.3781 10.8868 18.8002 11.3863C19.2231 11.8851 19.7734 12.1343 20.4515 12.1343Z" fill="white"/>
<path d="M37.9676 4.30615V14.647H34.6478V12.9396C33.9446 14.1673 32.8256 14.7808 31.2905 14.7808C30.1645 14.7808 29.2659 14.4232 28.5942 13.7077C27.9231 12.9915 27.5879 12.032 27.5879 10.8294V4.30615H30.9064V9.88873C30.9064 10.5026 31.063 10.9856 31.3761 11.3379C31.6899 11.6895 32.1094 11.8651 32.6339 11.8651C33.2602 11.8527 33.7519 11.6196 34.1099 11.1653C34.4685 10.7113 34.6478 10.1262 34.6478 9.40969V4.30615H37.9676Z" fill="white"/>
<path d="M44.029 14.6472H40.7105V0.411133H44.029V14.6472Z" fill="white"/>
<path d="M56.8458 4.30615V14.647H53.526V12.9396C52.8228 14.1673 51.7038 14.7808 50.1687 14.7808C49.0426 14.7808 48.1441 14.4232 47.4724 13.7077C46.8013 12.9915 46.4661 12.032 46.4661 10.8294V4.30615H49.7846V9.88873C49.7846 10.5026 49.9412 10.9856 50.2543 11.3379C50.5681 11.6895 50.9876 11.8651 51.5121 11.8651C52.1384 11.8527 52.6301 11.6196 52.9881 11.1653C53.3467 10.7113 53.526 10.1262 53.526 9.40969V4.30615H56.8458Z" fill="white"/>
</svg>
