<svg width="274" height="62" viewBox="0 0 274 62" fill="none" xmlns="http://www.w3.org/2000/svg">
<path d="M2.83601 54.9042H2.77498C2.7252 55.4398 2.64008 56.4419 2.51802 57.9106C2.39757 59.3801 2.33815 60.1799 2.33815 60.31C2.33815 60.5605 2.46342 60.6858 2.71396 60.6858L3.21182 60.673L3.23751 60.7211L3.1283 61.2672C3.03837 61.2583 2.87777 61.2479 2.6465 61.2351C2.41684 61.2238 2.18478 61.219 1.9495 61.219C1.74554 61.219 1.53675 61.2327 1.32316 61.2608C1.10876 61.2881 0.969836 61.3065 0.905596 61.3154L0.966624 60.7565C1.22519 60.7244 1.41149 60.6424 1.52551 60.5091C1.63874 60.3767 1.71181 60.1478 1.74393 59.8218C1.82262 59.0621 1.92862 58.0359 2.06192 56.7447C2.19682 55.4534 2.26427 54.7307 2.26427 54.5766C2.26427 54.367 2.18076 54.2096 2.01374 54.1044C1.84832 54 1.58413 53.9342 1.22037 53.9085L1.18504 53.8507L1.2814 53.4235C1.38579 53.4323 1.59136 53.4451 1.89811 53.462C2.20646 53.4773 2.44174 53.4845 2.60475 53.4845C2.75009 53.4845 2.90989 53.4797 3.08334 53.4684C3.25839 53.4556 3.37402 53.4451 3.43023 53.4363C3.75304 54.4818 4.06701 55.4518 4.37135 56.3464C4.67489 57.2393 4.92382 57.9492 5.11654 58.4759C5.31086 59.0011 5.43292 59.3287 5.4827 59.4588H5.54373C5.65696 59.1593 5.91633 58.447 6.32104 57.3228C6.72575 56.197 7.1666 54.9098 7.64438 53.462C7.64438 53.454 7.75359 53.4572 7.97201 53.4716L8.44417 53.4845C8.59835 53.4845 8.82801 53.4749 9.13476 53.4556C9.44311 53.4347 9.64948 53.4194 9.75467 53.4106L9.78037 53.462L9.71934 53.9085C9.37244 53.9494 9.12592 54.0209 8.98058 54.1237C8.83443 54.2249 8.76216 54.3758 8.76216 54.5766C8.76216 54.7564 8.7983 55.4197 8.87137 56.5648C8.94364 57.7083 9.0127 58.6976 9.07694 59.5327C9.11709 59.8651 9.15804 60.1101 9.199 60.2682C9.23915 60.4248 9.29616 60.534 9.36923 60.5959C9.4415 60.6561 9.54268 60.6858 9.67116 60.6858C9.74343 60.6858 9.81249 60.6818 9.87673 60.673C9.94258 60.6649 9.98754 60.6601 10.0116 60.6601L10.0341 60.7083L9.92491 61.2543C9.84541 61.2479 9.69445 61.2399 9.47202 61.2318C9.24878 61.223 9.01591 61.219 8.7718 61.219C8.55338 61.219 8.30766 61.2327 8.03625 61.2608C7.76644 61.2881 7.59058 61.3065 7.50948 61.3154L7.55766 60.7565C7.8082 60.7244 7.98968 60.6601 8.1037 60.5638C8.21693 60.4674 8.27394 60.3293 8.27394 60.1494C8.27394 59.9808 8.21452 59.1922 8.09728 57.7854C7.98165 56.3769 7.90295 55.4165 7.8628 54.9042H7.80177L5.45701 61.3635L5.16793 61.4503L2.83601 54.9042Z" fill="#112D7B"/>
<path d="M19.9877 61.2555L20.0359 60.7834C20.4486 60.7512 20.7313 60.7031 20.8838 60.6388C21.038 60.573 21.1151 60.467 21.1151 60.3208C21.1151 60.1602 21.0782 59.9667 21.0059 59.7395L20.6044 58.4161C20.4117 58.4081 19.9909 58.4033 19.3421 58.4033C18.9542 58.4033 18.5134 58.4354 18.0187 58.4996L17.569 59.7619C17.496 59.9804 17.4598 60.1394 17.4598 60.2373C17.4598 60.4156 17.516 60.5425 17.6301 60.6195C17.7433 60.6966 17.9296 60.7352 18.189 60.7352H18.8828L18.9052 60.7834L18.8346 61.3037C18.7358 61.2973 18.5118 61.2812 18.1633 61.2555C17.8164 61.2314 17.4767 61.2202 17.1451 61.2202C16.8447 61.2202 16.5677 61.2242 16.3131 61.233C16.0578 61.2411 15.8908 61.2491 15.8089 61.2555L15.9084 60.687C16.1333 60.6613 16.3139 60.5826 16.4513 60.4493C16.5902 60.3168 16.7243 60.0847 16.8528 59.7523L19.22 53.5467L19.9877 53.3411H20.084C20.133 53.5363 20.2559 53.986 20.4534 54.6902C20.6526 55.3928 20.8951 56.2255 21.1825 57.1891C21.4692 58.1527 21.7463 59.0392 22.0145 59.8487C22.1108 60.149 22.2393 60.3594 22.3999 60.4814C22.5621 60.6019 22.8223 60.6774 23.1804 60.7095L23.2029 60.7577L23.1194 61.2555C23.0206 61.2555 22.844 61.2491 22.5894 61.2363C22.3341 61.225 22.0819 61.2202 21.8314 61.2202C21.4435 61.2202 21.0685 61.2363 20.7072 61.2684C20.3474 61.3005 20.1194 61.3246 20.023 61.3422L19.9877 61.2555ZM19.3067 57.9054C19.5974 57.9054 19.9732 57.8853 20.4341 57.8444L19.477 54.6645H19.3902L18.2371 57.9054H19.3067Z" fill="#112D7B"/>
<path d="M30.1833 54.6639C30.1833 54.4053 30.1519 54.2319 30.0901 54.1436C30.0299 54.0536 29.911 54.0087 29.7336 54.0087C29.6517 54.0087 29.5706 54.0135 29.4895 54.0215C29.4076 54.0279 29.3513 54.0311 29.3192 54.0311L29.2967 53.983L29.3803 53.4498C29.4766 53.4586 29.6581 53.4674 29.9263 53.4755C30.1937 53.4819 30.4611 53.4851 30.7293 53.4851C30.9477 53.4851 31.1958 53.4714 31.4745 53.4433C31.7547 53.416 31.9386 53.3936 32.0269 53.3759L31.9788 53.9219C31.6784 53.9717 31.4721 54.0464 31.3588 54.1468C31.2448 54.2479 31.1838 54.4158 31.1758 54.6511L31.0312 59.8609C31.0224 60.1845 31.0545 60.403 31.1276 60.5162C31.1999 60.6302 31.346 60.6864 31.5644 60.6864C31.6865 60.6864 31.7997 60.6824 31.9049 60.6736C32.0093 60.6655 32.0791 60.6567 32.1137 60.6479L32.1362 60.696L32.0269 61.2549C31.9218 61.2485 31.7234 61.2405 31.4327 61.2325C31.1412 61.2236 30.8417 61.2196 30.5334 61.2196L29.1361 61.2325L29.2582 60.6864C29.5168 60.6607 29.7087 60.6206 29.8331 60.5644C29.9592 60.5065 30.0467 60.4182 30.0965 60.2978C30.1455 60.1757 30.1704 59.9974 30.1704 59.7614L30.1833 54.6639ZM33.5687 54.9658C33.8192 54.7153 33.9445 54.5057 33.9445 54.3363C33.9445 54.1243 33.6892 54.0022 33.1801 53.9701L33.1576 53.9219L33.2411 53.4016C33.3374 53.408 33.5374 53.4241 33.8417 53.4498C34.1453 53.4739 34.391 53.4851 34.5773 53.4851C34.7716 53.4851 34.9884 53.4803 35.2261 53.469C35.4654 53.4562 35.622 53.4457 35.6951 53.4369L35.7432 53.5204L35.6565 54.0183C35.4461 54.0592 35.2526 54.1452 35.0751 54.2752C34.8969 54.4037 34.6263 54.6591 34.2625 55.0397L32.3064 57.0922L34.346 59.7517C34.6367 60.1307 34.8985 60.3973 35.1297 60.5515C35.361 60.7057 35.618 60.7828 35.9006 60.7828L35.9488 60.831L35.8749 61.2453C35.7866 61.2598 35.6115 61.2879 35.3482 61.3288C35.0848 61.369 34.925 61.3898 34.8696 61.3898C34.6744 61.3898 34.4592 61.2983 34.224 61.1168C33.9903 60.9353 33.7518 60.6784 33.5077 60.3459L31.3845 57.3941L31.3974 57.2239L33.5687 54.9658Z" fill="#112D7B"/>
<path d="M42.1847 60.8053C42.5653 60.733 42.8222 60.6254 42.9555 60.4841C43.0904 60.3427 43.1579 60.1018 43.1579 59.7614L43.1707 54.6639C43.1707 54.4053 43.1394 54.2319 43.0776 54.1436C43.0174 54.0536 42.8985 54.0087 42.7211 54.0087L42.2104 54.0311L42.1847 53.983L42.2714 53.4498C42.3999 53.4498 42.5002 53.4546 42.5733 53.4626L43.7168 53.4851C44.0805 53.4851 44.5455 53.449 45.1108 53.3759L45.0626 53.9219C44.7302 53.9629 44.5053 54.0303 44.3881 54.1243C44.2725 54.2166 44.2058 54.3804 44.189 54.6157C44.1392 55.5625 44.099 56.5518 44.0669 57.5836C44.0348 58.6163 44.0187 59.3751 44.0187 59.8609C44.0187 60.1934 44.0549 60.4134 44.1279 60.5226C44.2002 60.6318 44.3415 60.6864 44.5519 60.6864C44.6908 60.6864 44.906 60.6736 45.1975 60.6479L45.22 60.696L45.1108 61.2549C44.9968 61.2549 44.9084 61.2517 44.8442 61.2453C44.2789 61.2276 43.8372 61.2196 43.5209 61.2196C43.1242 61.2196 42.6552 61.2678 42.114 61.3641L42.1847 60.8053Z" fill="#112D7B"/>
<path d="M58.1019 61.7051C57.3969 60.613 56.7111 59.5715 56.043 58.5798C55.3749 57.5889 54.8257 56.7875 54.3952 56.1773C53.9664 55.5654 53.6958 55.1775 53.5826 55.0145H53.5248L53.4638 60.1987C53.4638 60.3786 53.4911 60.5054 53.5473 60.5777C53.6051 60.6508 53.7023 60.6869 53.8396 60.6869L54.4595 60.6741L54.482 60.7222L54.3728 61.2683C54.2844 61.2595 54.103 61.249 53.8267 61.2362C53.5521 61.2249 53.3048 61.2201 53.0847 61.2201C52.8832 61.2201 52.6624 61.2338 52.4231 61.2619C52.1854 61.2892 52.0296 61.3076 51.9573 61.3165L52.0184 60.7576C52.2689 60.7255 52.4536 60.6516 52.574 60.5359C52.6961 60.4187 52.7611 60.2372 52.77 59.9931L52.9274 54.6869C52.9274 54.4364 52.8519 54.2589 52.7025 54.1537C52.5524 54.0493 52.2753 53.9762 51.8706 53.9353L51.8353 53.8742L51.9316 53.4246C52.0039 53.4334 52.1613 53.4462 52.4038 53.4631C52.6479 53.4784 52.8382 53.4856 52.9755 53.4856C53.1466 53.4856 53.3128 53.4808 53.4734 53.4695C53.6356 53.4567 53.7416 53.4462 53.7914 53.4374C54.3888 54.3689 54.9895 55.2803 55.5933 56.1708C56.1972 57.0598 56.7015 57.7921 57.1062 58.3678C57.5109 58.942 57.7654 59.3058 57.8706 59.4599H57.9317V54.5423C57.9317 54.1938 57.7976 54.0188 57.5302 54.0188L57.0676 54.0316L57.0452 53.9835L57.1544 53.4374C57.2355 53.4462 57.3888 53.4567 57.6137 53.4695C57.8401 53.4808 58.0714 53.4856 58.3075 53.4856C58.5171 53.4856 58.7491 53.4719 59.0045 53.4438C59.259 53.4165 59.4269 53.3981 59.5088 53.3892L59.4477 53.9481C59.1651 53.9891 58.9579 54.0686 58.8278 54.1858C58.6993 54.3014 58.6303 54.4773 58.6222 54.7126L58.452 61.5349L58.1019 61.7051Z" fill="#112D7B"/>
<path d="M69.3032 61.3647C68.5901 61.3647 67.9654 61.2122 67.4306 60.9054C66.8974 60.5971 66.4847 60.1626 66.194 59.6013C65.9025 59.0384 65.7571 58.376 65.7571 57.6131C65.7571 56.7804 65.9346 56.0408 66.2903 55.3936C66.6477 54.7448 67.1495 54.2405 67.7968 53.8808C68.4456 53.521 69.186 53.3411 70.0195 53.3411C70.319 53.3411 70.6426 53.3636 70.9895 53.4086C71.338 53.452 71.6383 53.4953 71.8889 53.5403C72.1394 53.5853 72.3008 53.6166 72.3739 53.6334L72.4221 53.7041C72.4068 53.7539 72.3787 53.8711 72.3385 54.0574C72.2976 54.2437 72.255 54.487 72.2101 54.7865C72.1651 55.0845 72.1306 55.3992 72.1073 55.7309L71.5355 55.7823C71.5436 55.7421 71.5524 55.6626 71.5612 55.5446C71.5693 55.4273 71.5741 55.2868 71.5741 55.1238C71.5741 54.7536 71.4295 54.4838 71.1405 54.3144C70.853 54.1433 70.3864 54.0574 69.74 54.0574C68.8166 54.0574 68.0987 54.3353 67.5848 54.8893C67.0709 55.4442 66.8139 56.2223 66.8139 57.2245C66.8139 57.9295 66.9271 58.5494 67.1544 59.0842C67.3808 59.6174 67.7044 60.0301 68.1244 60.3208C68.546 60.6123 69.0318 60.7577 69.5826 60.7577C69.8733 60.7577 70.1399 60.7239 70.3824 60.6549C70.6265 60.5866 70.8305 60.5127 70.9959 60.4332C71.1629 60.3521 71.2465 60.3072 71.2465 60.2983V58.8176C71.2465 58.5414 71.2031 58.3631 71.118 58.2812C71.0321 58.2001 70.8522 58.1591 70.5784 58.1591H69.74L69.7143 58.111L69.8235 57.5039C69.9215 57.5127 70.1287 57.5232 70.4435 57.536C70.7598 57.5473 71.0682 57.5521 71.3685 57.5521C71.5869 57.5521 71.8005 57.5449 72.0109 57.5296C72.2205 57.5127 72.3546 57.5007 72.4124 57.4943L72.4606 57.7609C72.3145 57.8813 72.2149 58.0724 72.1619 58.3358C72.1105 58.5992 72.0848 59.0312 72.0848 59.6302C72.0848 60.0992 72.1121 60.4549 72.1683 60.6966L72.0944 60.8058C72.0944 60.8147 71.9507 60.8701 71.664 60.9729C71.3765 61.074 71.0248 61.164 70.6073 61.2427C70.1913 61.3238 69.7569 61.3647 69.3032 61.3647Z" fill="#112D7B"/>
<path d="M87.2536 60.8053C87.6342 60.733 87.8912 60.6254 88.0245 60.4841C88.1594 60.3427 88.2268 60.1018 88.2268 59.7614L88.2397 54.6639C88.2397 54.4053 88.2083 54.2319 88.1465 54.1436C88.0863 54.0536 87.9674 54.0087 87.79 54.0087L87.2793 54.0311L87.2536 53.983L87.3403 53.4498C87.4688 53.4498 87.5692 53.4546 87.6422 53.4626L88.7857 53.4851C89.1495 53.4851 89.6144 53.449 90.1797 53.3759L90.1315 53.9219C89.7991 53.9629 89.5742 54.0303 89.457 54.1243C89.3414 54.2166 89.2747 54.3804 89.2579 54.6157C89.2081 55.5625 89.1679 56.5518 89.1358 57.5836C89.1037 58.6163 89.0876 59.3751 89.0876 59.8609C89.0876 60.1934 89.1238 60.4134 89.1968 60.5226C89.2691 60.6318 89.4104 60.6864 89.6208 60.6864C89.7597 60.6864 89.9749 60.6736 90.2664 60.6479L90.2889 60.696L90.1797 61.2549C90.0657 61.2549 89.9774 61.2517 89.9131 61.2453C89.3478 61.2276 88.9061 61.2196 88.5898 61.2196C88.1931 61.2196 87.7241 61.2678 87.1829 61.3641L87.2536 60.8053Z" fill="#112D7B"/>
<path d="M103.171 61.7051C102.466 60.613 101.78 59.5715 101.112 58.5798C100.444 57.5889 99.8946 56.7875 99.4642 56.1773C99.0354 55.5654 98.7648 55.1775 98.6515 55.0145H98.5937L98.5327 60.1987C98.5327 60.3786 98.56 60.5054 98.6162 60.5777C98.674 60.6508 98.7712 60.6869 98.9085 60.6869L99.5284 60.6741L99.5509 60.7222L99.4417 61.2683C99.3534 61.2595 99.1719 61.249 98.8956 61.2362C98.621 61.2249 98.3737 61.2201 98.1537 61.2201C97.9521 61.2201 97.7313 61.2338 97.492 61.2619C97.2543 61.2892 97.0985 61.3076 97.0263 61.3165L97.0873 60.7576C97.3378 60.7255 97.5225 60.6516 97.643 60.5359C97.765 60.4187 97.8301 60.2372 97.8389 59.9931L97.9963 54.6869C97.9963 54.4364 97.9208 54.2589 97.7714 54.1537C97.6213 54.0493 97.3443 53.9762 96.9395 53.9353L96.9042 53.8742L97.0006 53.4246C97.0728 53.4334 97.2302 53.4462 97.4727 53.4631C97.7168 53.4784 97.9072 53.4856 98.0445 53.4856C98.2155 53.4856 98.3817 53.4808 98.5423 53.4695C98.7045 53.4567 98.8105 53.4462 98.8603 53.4374C99.4578 54.3689 100.058 55.2803 100.662 56.1708C101.266 57.0598 101.77 57.7921 102.175 58.3678C102.58 58.942 102.834 59.3058 102.94 59.4599H103.001V54.5423C103.001 54.1938 102.866 54.0188 102.599 54.0188L102.137 54.0316L102.114 53.9835L102.223 53.4374C102.304 53.4462 102.458 53.4567 102.683 53.4695C102.909 53.4808 103.14 53.4856 103.376 53.4856C103.586 53.4856 103.818 53.4719 104.073 53.4438C104.328 53.4165 104.496 53.3981 104.578 53.3892L104.517 53.9481C104.234 53.9891 104.027 54.0686 103.897 54.1858C103.768 54.3014 103.699 54.4773 103.691 54.7126L103.521 61.5349L103.171 61.7051Z" fill="#112D7B"/>
<path d="M117.263 61.7051C116.558 60.613 115.872 59.5715 115.204 58.5798C114.536 57.5889 113.986 56.7875 113.556 56.1773C113.127 55.5654 112.857 55.1775 112.743 55.0145H112.686L112.625 60.1987C112.625 60.3786 112.652 60.5054 112.708 60.5777C112.766 60.6508 112.863 60.6869 113 60.6869L113.62 60.6741L113.643 60.7222L113.534 61.2683C113.445 61.2595 113.264 61.249 112.988 61.2362C112.713 61.2249 112.466 61.2201 112.246 61.2201C112.044 61.2201 111.823 61.2338 111.584 61.2619C111.346 61.2892 111.19 61.3076 111.118 61.3165L111.179 60.7576C111.43 60.7255 111.614 60.6516 111.735 60.5359C111.857 60.4187 111.922 60.2372 111.931 59.9931L112.088 54.6869C112.088 54.4364 112.013 54.2589 111.863 54.1537C111.713 54.0493 111.436 53.9762 111.031 53.9353L110.996 53.8742L111.092 53.4246C111.165 53.4334 111.322 53.4462 111.565 53.4631C111.809 53.4784 111.999 53.4856 112.136 53.4856C112.307 53.4856 112.474 53.4808 112.634 53.4695C112.796 53.4567 112.902 53.4462 112.952 53.4374C113.55 54.3689 114.15 55.2803 114.754 56.1708C115.358 57.0598 115.862 57.7921 116.267 58.3678C116.672 58.942 116.926 59.3058 117.031 59.4599H117.092V54.5423C117.092 54.1938 116.958 54.0188 116.691 54.0188L116.228 54.0316L116.206 53.9835L116.315 53.4374C116.396 53.4462 116.55 53.4567 116.774 53.4695C117.001 53.4808 117.232 53.4856 117.468 53.4856C117.678 53.4856 117.91 53.4719 118.165 53.4438C118.42 53.4165 118.588 53.3981 118.67 53.3892L118.609 53.9481C118.326 53.9891 118.119 54.0686 117.989 54.1858C117.86 54.3014 117.791 54.4773 117.783 54.7126L117.613 61.5349L117.263 61.7051Z" fill="#112D7B"/>
<path d="M128.281 61.3647C127.625 61.3647 127.042 61.2073 126.533 60.8926C126.023 60.5778 125.626 60.1361 125.342 59.566C125.059 58.9943 124.918 58.3438 124.918 57.6131C124.918 56.8213 125.093 56.0995 125.444 55.4482C125.798 54.7954 126.28 54.2815 126.89 53.9065C127.502 53.5298 128.176 53.3411 128.913 53.3411C129.585 53.3411 130.18 53.5001 130.696 53.8165C131.214 54.1313 131.619 54.5729 131.91 55.1399C132.203 55.7052 132.35 56.3524 132.35 57.0799C132.35 57.8725 132.169 58.5976 131.807 59.2544C131.448 59.9097 130.958 60.426 130.339 60.8026C129.72 61.1776 129.034 61.3647 128.281 61.3647ZM128.656 60.748C129.168 60.748 129.622 60.6147 130.018 60.3465C130.414 60.0791 130.722 59.7065 130.94 59.2287C131.159 58.7518 131.268 58.2057 131.268 57.5906C131.268 56.9016 131.15 56.2922 130.914 55.763C130.681 55.2322 130.356 54.8179 129.938 54.5199C129.522 54.2204 129.043 54.0703 128.499 54.0703C128.006 54.0703 127.568 54.2044 127.182 54.4718C126.798 54.7376 126.499 55.1094 126.283 55.5863C126.068 56.0641 125.962 56.6102 125.962 57.2245C125.962 57.9142 126.075 58.5245 126.302 59.0553C126.528 59.5845 126.846 59.9988 127.256 60.2983C127.665 60.5987 128.131 60.748 128.656 60.748Z" fill="#112D7B"/>
<path d="M141.328 61.4249C141.208 61.0202 140.935 60.1305 140.509 58.7558C140.085 57.3794 139.658 56.0312 139.228 54.7118C139.155 54.4766 139.029 54.3039 138.852 54.1947C138.674 54.0855 138.428 54.0269 138.113 54.018L138.088 53.9699L138.171 53.4495C138.278 53.4495 138.475 53.4559 138.762 53.4688C139.049 53.48 139.322 53.4849 139.581 53.4849C139.849 53.4849 140.186 53.4672 140.593 53.4303C141.002 53.3941 141.271 53.3684 141.402 53.3532L141.438 53.4367L141.39 53.9088C140.953 53.9434 140.664 53.9924 140.522 54.0566C140.381 54.1208 140.31 54.2421 140.31 54.4196C140.31 54.5826 140.524 55.4233 140.953 56.941C141.381 58.457 141.676 59.4905 141.839 60.0406H141.948C143.291 56.578 143.962 54.7175 143.962 54.4581C143.962 54.2871 143.898 54.1626 143.77 54.0855C143.641 54.0084 143.427 53.9699 143.127 53.9699H142.494L142.472 53.9217L142.543 53.4013C142.647 53.4078 142.88 53.4238 143.24 53.4495C143.601 53.4736 143.948 53.4849 144.28 53.4849C144.58 53.4849 144.857 53.4816 145.112 53.4752C145.367 53.4672 145.535 53.4584 145.617 53.4495L145.517 54.018C145.266 54.0269 145.091 54.0678 144.993 54.1401C144.897 54.2132 144.805 54.3674 144.717 54.6026L142.106 61.1583L141.328 61.4249Z" fill="#112D7B"/>
<path d="M154.962 61.2555L155.01 60.7834C155.423 60.7512 155.705 60.7031 155.858 60.6388C156.012 60.573 156.089 60.467 156.089 60.3208C156.089 60.1602 156.052 59.9667 155.98 59.7395L155.578 58.4161C155.386 58.4081 154.965 58.4033 154.316 58.4033C153.928 58.4033 153.487 58.4354 152.993 58.4996L152.543 59.7619C152.47 59.9804 152.434 60.1394 152.434 60.2373C152.434 60.4156 152.49 60.5425 152.604 60.6195C152.717 60.6966 152.904 60.7352 153.163 60.7352H153.857L153.879 60.7834L153.809 61.3037C153.71 61.2973 153.486 61.2812 153.137 61.2555C152.79 61.2314 152.451 61.2202 152.119 61.2202C151.819 61.2202 151.542 61.2242 151.287 61.233C151.032 61.2411 150.865 61.2491 150.783 61.2555L150.882 60.687C151.107 60.6613 151.288 60.5826 151.425 60.4493C151.564 60.3168 151.698 60.0847 151.827 59.7523L154.194 53.5467L154.962 53.3411H155.058C155.107 53.5363 155.23 53.986 155.427 54.6902C155.627 55.3928 155.869 56.2255 156.157 57.1891C156.443 58.1527 156.72 59.0392 156.988 59.8487C157.085 60.149 157.213 60.3594 157.374 60.4814C157.536 60.6019 157.796 60.6774 158.154 60.7095L158.177 60.7577L158.093 61.2555C157.995 61.2555 157.818 61.2491 157.563 61.2363C157.308 61.225 157.056 61.2202 156.805 61.2202C156.417 61.2202 156.042 61.2363 155.681 61.2684C155.321 61.3005 155.093 61.3246 154.997 61.3422L154.962 61.2555ZM154.281 57.9054C154.571 57.9054 154.947 57.8853 155.408 57.8444L154.451 54.6645H154.364L153.211 57.9054H154.281Z" fill="#112D7B"/>
<path d="M165.035 60.748C165.44 60.7143 165.718 60.6629 165.87 60.5939C166.024 60.5256 166.125 60.4003 166.175 60.218C166.224 60.0366 166.249 59.7154 166.249 59.2544V53.9611C165.559 53.9851 165.091 54.0237 164.845 54.0767C164.599 54.1281 164.431 54.2453 164.341 54.4268C164.253 54.6091 164.173 54.9632 164.1 55.49L163.529 55.5382C163.625 54.7697 163.686 54.0695 163.712 53.4375L163.821 53.3411L164.826 53.4728H168.591L169.625 53.3411L169.734 53.4375C169.757 54.1016 169.818 54.7857 169.914 55.49L169.345 55.5382C169.256 55.0034 169.166 54.6436 169.076 54.4589C168.987 54.2726 168.83 54.1522 168.604 54.096C168.376 54.0381 167.939 53.9932 167.293 53.9611C167.243 54.4453 167.198 55.3029 167.158 56.5339C167.117 57.7633 167.097 58.8722 167.097 59.8615C167.097 60.1618 167.149 60.3746 167.254 60.5007C167.361 60.6252 167.54 60.687 167.791 60.687C168.033 60.687 168.255 60.6742 168.459 60.6485L168.494 60.6966L168.385 61.2555L167.984 61.2459L166.599 61.2202C166.154 61.2202 165.599 61.2363 164.935 61.2684L165.035 60.748Z" fill="#112D7B"/>
<path d="M176.163 60.8053C176.544 60.733 176.801 60.6254 176.934 60.4841C177.069 60.3427 177.136 60.1018 177.136 59.7614L177.149 54.6639C177.149 54.4053 177.118 54.2319 177.056 54.1436C176.996 54.0536 176.877 54.0087 176.7 54.0087L176.189 54.0311L176.163 53.983L176.25 53.4498C176.378 53.4498 176.479 53.4546 176.552 53.4626L177.695 53.4851C178.059 53.4851 178.524 53.449 179.089 53.3759L179.041 53.9219C178.709 53.9629 178.484 54.0303 178.367 54.1243C178.251 54.2166 178.184 54.3804 178.167 54.6157C178.118 55.5625 178.078 56.5518 178.045 57.5836C178.013 58.6163 177.997 59.3751 177.997 59.8609C177.997 60.1934 178.033 60.4134 178.106 60.5226C178.179 60.6318 178.32 60.6864 178.53 60.6864C178.669 60.6864 178.885 60.6736 179.176 60.6479L179.199 60.696L179.089 61.2549C178.975 61.2549 178.887 61.2517 178.823 61.2453C178.257 61.2276 177.816 61.2196 177.499 61.2196C177.103 61.2196 176.634 61.2678 176.093 61.3641L176.163 60.8053Z" fill="#112D7B"/>
<path d="M189.007 61.3647C188.352 61.3647 187.769 61.2073 187.259 60.8926C186.75 60.5778 186.352 60.1361 186.068 59.566C185.785 58.9943 185.644 58.3438 185.644 57.6131C185.644 56.8213 185.819 56.0995 186.171 55.4482C186.524 54.7954 187.006 54.2815 187.616 53.9065C188.228 53.5298 188.902 53.3411 189.64 53.3411C190.312 53.3411 190.906 53.5001 191.422 53.8165C191.94 54.1313 192.345 54.5729 192.636 55.1399C192.929 55.7052 193.076 56.3524 193.076 57.0799C193.076 57.8725 192.895 58.5976 192.534 59.2544C192.174 59.9097 191.684 60.426 191.066 60.8026C190.447 61.1776 189.76 61.3647 189.007 61.3647ZM189.383 60.748C189.894 60.748 190.348 60.6147 190.744 60.3465C191.14 60.0791 191.448 59.7065 191.666 59.2287C191.885 58.7518 191.994 58.2057 191.994 57.5906C191.994 56.9016 191.876 56.2922 191.641 55.763C191.407 55.2322 191.082 54.8179 190.664 54.5199C190.248 54.2204 189.769 54.0703 189.225 54.0703C188.732 54.0703 188.294 54.2044 187.908 54.4718C187.524 54.7376 187.225 55.1094 187.009 55.5863C186.794 56.0641 186.688 56.6102 186.688 57.2245C186.688 57.9142 186.801 58.5245 187.028 59.0553C187.255 59.5845 187.573 59.9988 187.982 60.2983C188.391 60.5987 188.857 60.748 189.383 60.748Z" fill="#112D7B"/>
<path d="M205.845 61.7051C205.14 60.613 204.454 59.5715 203.786 58.5798C203.118 57.5889 202.569 56.7875 202.138 56.1773C201.71 55.5654 201.439 55.1775 201.326 55.0145H201.268L201.207 60.1987C201.207 60.3786 201.234 60.5054 201.29 60.5777C201.348 60.6508 201.445 60.6869 201.583 60.6869L202.203 60.6741L202.225 60.7222L202.116 61.2683C202.027 61.2595 201.846 61.249 201.57 61.2362C201.295 61.2249 201.048 61.2201 200.828 61.2201C200.626 61.2201 200.405 61.2338 200.166 61.2619C199.928 61.2892 199.773 61.3076 199.7 61.3165L199.761 60.7576C200.012 60.7255 200.197 60.6516 200.317 60.5359C200.439 60.4187 200.504 60.2372 200.513 59.9931L200.67 54.6869C200.67 54.4364 200.595 54.2589 200.446 54.1537C200.295 54.0493 200.018 53.9762 199.614 53.9353L199.578 53.8742L199.675 53.4246C199.747 53.4334 199.904 53.4462 200.147 53.4631C200.391 53.4784 200.581 53.4856 200.719 53.4856C200.89 53.4856 201.056 53.4808 201.216 53.4695C201.379 53.4567 201.485 53.4462 201.534 53.4374C202.132 54.3689 202.733 55.2803 203.336 56.1708C203.94 57.0598 204.445 57.7921 204.849 58.3678C205.254 58.942 205.509 59.3058 205.614 59.4599H205.675V54.5423C205.675 54.1938 205.541 54.0188 205.273 54.0188L204.811 54.0316L204.788 53.9835L204.897 53.4374C204.979 53.4462 205.132 53.4567 205.357 53.4695C205.583 53.4808 205.814 53.4856 206.051 53.4856C206.26 53.4856 206.492 53.4719 206.748 53.4438C207.002 53.4165 207.17 53.3981 207.252 53.3892L207.191 53.9481C206.908 53.9891 206.701 54.0686 206.571 54.1858C206.442 54.3014 206.373 54.4773 206.365 54.7126L206.195 61.5349L205.845 61.7051Z" fill="#112D7B"/>
<path d="M223.832 61.4249C223.718 61.0202 223.457 60.1305 223.048 58.7558C222.639 57.3794 222.225 56.0312 221.805 54.7118C221.73 54.4766 221.604 54.3039 221.426 54.1947C221.248 54.0855 221.01 54.0269 220.71 54.018L220.7 53.9699L220.771 53.4495C220.876 53.4495 221.065 53.4559 221.34 53.4688C221.616 53.48 221.883 53.4849 222.143 53.4849C222.5 53.4849 222.857 53.4672 223.212 53.4303C223.567 53.3941 223.798 53.3684 223.903 53.3532L223.941 53.4367L223.893 53.9088C223.48 53.9434 223.203 53.9924 223.061 54.0566C222.92 54.1208 222.849 54.2381 222.849 54.4067C222.849 54.5464 222.959 55.0346 223.18 55.8714C223.403 56.7089 223.634 57.548 223.874 58.3896C224.113 59.2311 224.27 59.782 224.343 60.0406H224.414L226.126 55.3799L225.907 54.7118C225.825 54.4766 225.7 54.3063 225.531 54.2011C225.362 54.0967 225.123 54.0357 224.815 54.018L224.789 53.9699L224.876 53.4495C224.98 53.4495 225.17 53.4559 225.445 53.4688C225.721 53.48 225.988 53.4849 226.248 53.4849C226.556 53.4849 226.897 53.4672 227.272 53.4303C227.649 53.3941 227.894 53.3684 228.008 53.3532L228.043 53.4367L227.995 53.9088C227.575 53.9434 227.293 53.9924 227.15 54.0566C227.009 54.1208 226.938 54.2421 226.938 54.4196C226.938 54.5914 227.149 55.4337 227.571 56.9474C227.993 58.4595 228.284 59.4905 228.445 60.0406H228.518C228.533 59.994 228.551 59.9442 228.57 59.8928C228.591 59.8398 228.615 59.7764 228.641 59.7033C229.869 56.3998 230.484 54.6307 230.484 54.3971C230.484 54.2429 230.418 54.1337 230.288 54.0694C230.16 54.0036 229.949 53.9699 229.659 53.9699H229.052L229.029 53.9217L229.113 53.4013C229.217 53.4078 229.444 53.4238 229.79 53.4495C230.139 53.4736 230.475 53.4849 230.799 53.4849C231.092 53.4849 231.36 53.4816 231.602 53.4752C231.844 53.4672 232.005 53.4584 232.087 53.4495L232.004 54.018C231.759 54.0357 231.589 54.0783 231.493 54.1465C231.396 54.2156 231.307 54.3674 231.226 54.6026L228.676 61.1583L227.924 61.4249C227.842 61.1423 227.654 60.4918 227.359 59.472C227.063 58.4506 226.745 57.3866 226.405 56.2793H226.331L224.609 61.1583L223.832 61.4249Z" fill="#112D7B"/>
<path d="M241.309 61.3647C240.653 61.3647 240.07 61.2073 239.561 60.8926C239.051 60.5778 238.654 60.1361 238.37 59.566C238.087 58.9943 237.946 58.3438 237.946 57.6131C237.946 56.8213 238.121 56.0995 238.472 55.4482C238.826 54.7954 239.308 54.2815 239.918 53.9065C240.53 53.5298 241.204 53.3411 241.941 53.3411C242.614 53.3411 243.208 53.5001 243.724 53.8165C244.242 54.1313 244.647 54.5729 244.938 55.1399C245.231 55.7052 245.378 56.3524 245.378 57.0799C245.378 57.8725 245.197 58.5976 244.835 59.2544C244.476 59.9097 243.986 60.426 243.368 60.8026C242.748 61.1776 242.062 61.3647 241.309 61.3647ZM241.684 60.748C242.196 60.748 242.65 60.6147 243.046 60.3465C243.442 60.0791 243.75 59.7065 243.968 59.2287C244.187 58.7518 244.296 58.2057 244.296 57.5906C244.296 56.9016 244.178 56.2922 243.943 55.763C243.709 55.2322 243.384 54.8179 242.966 54.5199C242.55 54.2204 242.071 54.0703 241.527 54.0703C241.034 54.0703 240.596 54.2044 240.21 54.4718C239.826 54.7376 239.527 55.1094 239.311 55.5863C239.096 56.0641 238.99 56.6102 238.99 57.2245C238.99 57.9142 239.103 58.5245 239.33 59.0553C239.557 59.5845 239.875 59.9988 240.284 60.2983C240.693 60.5987 241.159 60.748 241.684 60.748Z" fill="#112D7B"/>
<path d="M257.44 61.4128C257.238 61.4128 257.022 61.31 256.791 61.1044C256.56 60.8988 256.348 60.6178 256.155 60.2596L254.854 57.9052H253.846L253.81 59.7136C253.81 60.022 253.83 60.2436 253.871 60.3785C253.912 60.5118 253.989 60.6001 254.103 60.6451C254.216 60.6884 254.409 60.7093 254.684 60.7093L254.71 60.7575L254.601 61.2682C254.502 61.2594 254.307 61.2505 254.016 61.2425C253.724 61.2361 253.422 61.2329 253.107 61.2329C252.824 61.2329 252.572 61.2361 252.352 61.2425C252.134 61.2505 251.988 61.2594 251.915 61.2682L252.025 60.7222C252.283 60.6901 252.477 60.6467 252.606 60.5905C252.736 60.5327 252.826 60.4419 252.876 60.3175C252.925 60.1914 252.95 60.0059 252.95 59.7618L252.962 54.6643C252.962 54.4058 252.931 54.2323 252.869 54.144C252.809 54.054 252.69 54.0091 252.513 54.0091C252.431 54.0091 252.35 54.0139 252.269 54.0219C252.187 54.0283 252.131 54.0316 252.098 54.0316L252.076 53.9834L252.159 53.4502C252.256 53.459 252.437 53.4679 252.705 53.4759C252.973 53.4823 253.24 53.4855 253.508 53.4855C253.782 53.4855 254.071 53.4807 254.376 53.4695C254.679 53.4566 254.888 53.4462 255.002 53.4373C255.754 53.4373 256.348 53.6076 256.785 53.948C257.222 54.2885 257.44 54.7535 257.44 55.3421C257.44 55.8287 257.283 56.2735 256.971 56.6783C256.66 57.083 256.223 57.4154 255.657 57.674L256.99 59.7875C257.226 60.1753 257.454 60.4443 257.678 60.5937C257.9 60.7439 258.173 60.8185 258.497 60.8185L258.545 60.8667L258.474 61.2811L257.44 61.4128ZM255.121 57.3464C255.121 57.372 255.241 57.3207 255.484 57.1922C255.728 57.0621 255.947 56.8629 256.142 56.5947C256.337 56.3273 256.435 55.9837 256.435 55.5637C256.435 54.4957 255.693 53.9609 254.212 53.9609C254.13 53.9609 254.075 53.9794 254.048 54.0155C254.02 54.0524 254.002 54.1271 253.993 54.2403C253.92 55.4786 253.879 56.4727 253.871 57.2243L255.121 57.3464Z" fill="#112D7B"/>
<path d="M265.744 54.6639C265.744 54.4053 265.712 54.2319 265.65 54.1436C265.59 54.0536 265.471 54.0087 265.294 54.0087C265.212 54.0087 265.131 54.0135 265.05 54.0215C264.968 54.0279 264.912 54.0311 264.88 54.0311L264.857 53.983L264.941 53.4498C265.037 53.4586 265.218 53.4674 265.487 53.4755C265.754 53.4819 266.021 53.4851 266.29 53.4851C266.508 53.4851 266.756 53.4714 267.035 53.4433C267.315 53.416 267.499 53.3936 267.587 53.3759L267.539 53.9219C267.239 53.9717 267.032 54.0464 266.919 54.1468C266.805 54.2479 266.744 54.4158 266.736 54.6511L266.592 59.8609C266.583 60.1845 266.615 60.403 266.688 60.5162C266.76 60.6302 266.906 60.6864 267.125 60.6864C267.247 60.6864 267.36 60.6824 267.465 60.6736C267.57 60.6655 267.639 60.6567 267.674 60.6479L267.696 60.696L267.587 61.2549C267.482 61.2485 267.284 61.2405 266.993 61.2325C266.702 61.2236 266.402 61.2196 266.094 61.2196L264.696 61.2325L264.818 60.6864C265.077 60.6607 265.269 60.6206 265.393 60.5644C265.52 60.5065 265.607 60.4182 265.657 60.2978C265.706 60.1757 265.731 59.9974 265.731 59.7614L265.744 54.6639ZM269.129 54.9658C269.38 54.7153 269.505 54.5057 269.505 54.3363C269.505 54.1243 269.249 54.0022 268.74 53.9701L268.718 53.9219L268.801 53.4016C268.898 53.408 269.098 53.4241 269.402 53.4498C269.706 53.4739 269.951 53.4851 270.138 53.4851C270.332 53.4851 270.549 53.4803 270.786 53.469C271.026 53.4562 271.182 53.4457 271.255 53.4369L271.304 53.5204L271.217 54.0183C271.006 54.0592 270.813 54.1452 270.635 54.2752C270.457 54.4037 270.187 54.6591 269.823 55.0397L267.867 57.0922L269.906 59.7517C270.197 60.1307 270.459 60.3973 270.69 60.5515C270.921 60.7057 271.178 60.7828 271.461 60.7828L271.509 60.831L271.435 61.2453C271.347 61.2598 271.172 61.2879 270.908 61.3288C270.645 61.369 270.485 61.3898 270.43 61.3898C270.235 61.3898 270.02 61.2983 269.784 61.1168C269.551 60.9353 269.312 60.6784 269.068 60.3459L266.945 57.3941L266.958 57.2239L269.129 54.9658Z" fill="#112D7B"/>
<path d="M167.944 27.4439H151.688L148.604 34.7191H142.938L157.167 2.48661H162.74L176.831 34.7191H171.027L167.944 27.4439ZM165.872 22.6098L159.792 8.28749L153.714 22.6098H165.872Z" fill="#112D7B"/>
<path d="M190.36 4.9267C189.409 4.9267 188.619 5.20293 187.989 5.7554C187.36 6.30786 187.045 7.13656 187.045 8.24149V11.1419H193.446V15.1023H187.045V34.7181H181.796V15.1023H178.571V11.1419H181.796V8.74578C181.796 6.04608 182.625 3.96631 184.282 2.50806C185.94 1.04981 187.919 0.320683 190.221 0.320683C192.371 0.320683 194.214 0.888405 195.749 2.02305L193.722 6.0766C192.679 5.31053 191.558 4.9267 190.36 4.9267Z" fill="#112D7B"/>
<path d="M201.869 10.2204V15.1026C203.559 11.726 206.383 10.0373 210.342 10.0373V15.1026C207.916 14.9806 205.951 15.5491 204.448 16.8082C202.945 18.0657 202.085 19.7689 201.869 21.9185V34.7183H196.576V10.2204H201.869Z" fill="#112D7B"/>
<path d="M215.126 0.899362C215.71 0.300322 216.447 0 217.336 0C218.226 0 218.963 0.300322 219.546 0.899362C220.13 1.49679 220.422 2.27089 220.422 3.22164C220.422 4.14268 220.13 4.90313 219.546 5.50217C218.963 6.0996 218.226 6.39832 217.336 6.39832C216.447 6.39832 215.71 6.0996 215.126 5.50217C214.543 4.90313 214.252 4.14268 214.252 3.22164C214.252 2.27089 214.543 1.49679 215.126 0.899362ZM219.963 34.7186H214.715V10.2206H219.963V34.7186Z" fill="#112D7B"/>
<path d="M237.827 10.0373C242.247 10.0373 245.623 11.3727 247.958 14.0427L245.057 17.4506C243.214 15.5796 240.879 14.6586 238.055 14.6883C235.937 14.6883 234.195 15.4174 232.829 16.8757C231.463 18.3339 230.78 20.2145 230.78 22.5159C230.78 24.8181 231.463 26.698 232.829 28.1562C234.195 29.6145 235.937 30.3436 238.055 30.3436C241.188 30.3436 243.598 29.3623 245.285 27.3982L248.234 30.3436C245.932 33.3822 242.463 34.9014 237.827 34.9014C234.173 34.9014 231.204 33.758 228.917 31.471C226.63 29.1841 225.487 26.1993 225.487 22.5159C225.487 18.8013 226.63 15.7924 228.917 13.4902C231.204 11.1888 234.173 10.0373 237.827 10.0373Z" fill="#112D7B"/>
<path d="M268.444 34.7184V31.7248C266.694 33.8752 263.993 34.9496 260.34 34.9496C257.729 34.9496 255.641 34.2357 254.076 32.8072C252.51 31.3795 251.728 29.5599 251.728 27.35C251.728 25.1104 252.541 23.331 254.166 22.0117C255.793 20.6907 258.066 20.0138 260.982 19.9817H268.395V19.2461C268.395 17.6811 267.896 16.4693 266.899 15.6101C265.903 14.7493 264.453 14.3189 262.55 14.3189C260.185 14.3189 257.775 15.1476 255.319 16.805L253.154 13.1208C255.028 12.0159 256.708 11.2257 258.197 10.7504C259.685 10.275 261.519 10.0373 263.699 10.0373C266.83 10.0373 269.255 10.7977 270.975 12.3178C272.694 13.8363 273.568 15.9466 273.599 18.6487L273.647 34.7184H268.444ZM261.445 30.7579C263.316 30.7579 264.904 30.3211 266.208 29.4474C267.514 28.5722 268.243 27.4584 268.395 26.107V23.8521H261.766C260.016 23.8521 258.734 24.1059 257.921 24.6134C257.107 25.1193 256.7 25.9552 256.7 27.122C256.7 28.2269 257.122 29.1094 257.966 29.7686C258.812 30.4287 259.971 30.7579 261.445 30.7579Z" fill="#112D7B"/>
<path d="M29.5665 2.92086V21.6212C29.5665 25.8891 28.2448 29.2746 25.6029 31.7775C22.9626 34.2789 19.3861 35.5291 14.8748 35.5291C10.3306 35.5291 6.7147 34.2789 4.02786 31.7775C1.34262 29.2746 0 25.8891 0 21.6212V2.92086H8.19704V21.6212C8.19704 23.7692 8.81776 25.4804 10.06 26.7539C11.3039 28.0283 12.9235 28.6651 14.9198 28.6651C16.8855 28.6651 18.4594 28.0371 19.6414 26.7796C20.8234 25.5205 21.4144 23.8013 21.4144 21.6212V2.92086H29.5665Z" fill="#112D7B"/>
<path d="M51.0256 10.0613C54.5243 10.0613 57.3404 11.2361 59.4732 13.5849C61.6075 15.9345 62.6755 19.0277 62.6755 22.8644C62.6755 26.6401 61.6316 29.6795 59.5438 31.9833C57.456 34.2855 54.6776 35.4362 51.2087 35.4362C47.9533 35.4362 45.4206 34.2397 43.6091 31.8452V35.16H35.6433V0.987431H43.6091V13.6074C45.4527 11.2434 47.9244 10.0613 51.0256 10.0613ZM49.092 29.1278C50.7493 29.1278 52.092 28.5224 53.1198 27.3098C54.1493 26.0957 54.6648 24.5371 54.6648 22.6331C54.6648 20.73 54.1493 19.1794 53.1198 17.9822C52.092 16.7857 50.7493 16.1866 49.092 16.1866C47.494 16.1866 46.1803 16.7857 45.1508 17.9822C44.123 19.1794 43.6091 20.73 43.6091 22.6331C43.6091 24.5668 44.1149 26.1334 45.1283 27.3323C46.1433 28.5296 47.4643 29.1278 49.092 29.1278Z" fill="#112D7B"/>
<path d="M91.138 10.3366V35.159H83.169V31.0605C81.4811 34.0075 78.7951 35.4802 75.1101 35.4802C72.4072 35.4802 70.2503 34.6218 68.6379 32.9042C67.0271 31.1849 66.2225 28.8819 66.2225 25.9951V10.3366H74.1882V23.7371C74.1882 25.2106 74.564 26.3701 75.3156 27.2157C76.0689 28.0596 77.0758 28.4812 78.3349 28.4812C79.8382 28.4515 81.0186 27.8918 81.8778 26.8013C82.7386 25.7117 83.169 24.3072 83.169 22.5872V10.3366H91.138Z" fill="#112D7B"/>
<path d="M105.688 35.16H97.7219V0.987431H105.688V35.16Z" fill="#112D7B"/>
<path d="M136.453 10.3366V35.159H128.484V31.0605C126.797 34.0075 124.111 35.4802 120.426 35.4802C117.723 35.4802 115.566 34.6218 113.953 32.9042C112.343 31.1849 111.538 28.8819 111.538 25.9951V10.3366H119.504V23.7371C119.504 25.2106 119.879 26.3701 120.631 27.2157C121.384 28.0596 122.391 28.4812 123.65 28.4812C125.154 28.4515 126.334 27.8918 127.193 26.8013C128.054 25.7117 128.484 24.3072 128.484 22.5872V10.3366H136.453Z" fill="#112D7B"/>
</svg>
